<svg xmlns="http://www.w3.org/2000/svg" width="38.019" height="25.317" viewBox="0 0 38.019 25.317">
  <g id="Grupo_4088" data-name="Grupo 4088" transform="translate(-169.25 -176.25)">
    <path id="Trazado_4341" data-name="Trazado 4341" d="M204.869,197.434H207.5a1.016,1.016,0,0,0,1.016-1.016v-7.869a1.011,1.011,0,0,0-.112-.464l-3.359-6.533a1.016,1.016,0,0,0-.9-.551H193v16.434" transform="translate(-2.001 -0.348)" fill="#f7f7f7"/>
    <path id="Trazado_4341_-_Contorno" data-name="Trazado 4341 - Contorno" d="M207.5,198.184h-2.636a.75.75,0,1,1,0-1.5H207.5a.266.266,0,0,0,.266-.266v-7.869a.263.263,0,0,0-.029-.12l-3.359-6.534a.265.265,0,0,0-.237-.144h-10.4v15.684a.75.75,0,0,1-1.5,0V181a.75.75,0,0,1,.75-.75h11.146a1.76,1.76,0,0,1,1.571.958l3.359,6.534a1.768,1.768,0,0,1,.2.807v7.869A1.768,1.768,0,0,1,207.5,198.184Z" transform="translate(-2.001 -0.348)" fill="#53107a"/>
    <path id="Trazado_4342" data-name="Trazado 4342" d="M206.08,189.478,203.361,184H197v5.478Z" transform="translate(-2.35 -0.609)" fill="#f7f7f7"/>
    <path id="Trazado_4342_-_Contorno" data-name="Trazado 4342 - Contorno" d="M206.08,190.228H197a.75.75,0,0,1-.75-.75V184a.75.75,0,0,1,.75-.75h6.361a.75.75,0,0,1,.672.416l2.72,5.478a.75.75,0,0,1-.672,1.084Zm-8.331-1.5h7.121L202.9,184.75H197.75Z" transform="translate(-2.35 -0.609)" fill="#53107a"/>
    <path id="Trazado_4343" data-name="Trazado 4343" d="M182,199h13.695" transform="translate(-1.044 -1.914)" fill="#f7f7f7"/>
    <path id="Trazado_4343_-_Contorno" data-name="Trazado 4343 - Contorno" d="M195.695,199.75H182a.75.75,0,0,1,0-1.5h13.695a.75.75,0,1,1,0,1.5Z" transform="translate(-1.044 -1.914)" fill="#53107a"/>
    <path id="Trazado_4344" data-name="Trazado 4344" d="M173.652,197.086H170V178.471A1.47,1.47,0,0,1,171.471,177h18.057A1.47,1.47,0,0,1,191,178.471v3.7" transform="translate(0)" fill="#f7f7f7"/>
    <path id="Trazado_4344_-_Contorno" data-name="Trazado 4344 - Contorno" d="M173.652,197.836H170a.75.75,0,0,1-.75-.75V178.471a2.223,2.223,0,0,1,2.221-2.221h18.057a2.223,2.223,0,0,1,2.221,2.221v3.7a.75.75,0,0,1-1.5,0v-3.7a.722.722,0,0,0-.721-.721H171.471a.722.722,0,0,0-.721.721v17.865h2.9a.75.75,0,0,1,0,1.5Z" transform="translate(0)" fill="#53107a"/>
    <path id="Línea_51" data-name="Línea 51" d="M9.044.75H0A.75.75,0,0,1-.75,0,.75.75,0,0,1,0-.75H9.044a.75.75,0,0,1,.75.75A.75.75,0,0,1,9.044.75Z" transform="translate(182.059 193.28)" fill="#53107a"/>
    <path id="Línea_52" data-name="Línea 52" d="M2.11.75H0A.75.75,0,0,1-.75,0,.75.75,0,0,1,0-.75H2.11A.75.75,0,0,1,2.86,0,.75.75,0,0,1,2.11.75Z" transform="translate(170 193.28)" fill="#53107a"/>
    <circle id="Elipse_64" data-name="Elipse 64" cx="3.768" cy="3.768" r="3.768" transform="translate(173.618 193.28)" fill="#f7f7f7"/>
    <path id="Elipse_64_-_Contorno" data-name="Elipse 64 - Contorno" d="M3.768-.75A4.518,4.518,0,1,1-.75,3.768,4.524,4.524,0,0,1,3.768-.75Zm0,7.537A3.018,3.018,0,1,0,.75,3.768,3.022,3.022,0,0,0,3.768,6.787Z" transform="translate(173.618 193.28)" fill="#53107a"/>
    <circle id="Elipse_65" data-name="Elipse 65" cx="3.768" cy="3.768" r="3.768" transform="translate(195.324 193.28)" fill="#f7f7f7"/>
    <path id="Elipse_65_-_Contorno" data-name="Elipse 65 - Contorno" d="M3.768-.75A4.518,4.518,0,1,1-.75,3.768,4.524,4.524,0,0,1,3.768-.75Zm0,7.537A3.018,3.018,0,1,0,.75,3.768,3.022,3.022,0,0,0,3.768,6.787Z" transform="translate(195.324 193.28)" fill="#53107a"/>
  </g>
</svg>
