<svg id="Capa_1" data-name="Capa 1" xmlns="http://www.w3.org/2000/svg" viewBox="0 0 1400 378.43"><defs><style>.cls-1{fill:#452e82;}</style></defs><path class="cls-1" d="M443.94,321.1v20.36h10.78v4.8H439.15V321.1ZM482,341.46H469.71l-2.23,4.8h-5l11-25.16h5l10.89,25.16h-5.16Zm-1.73-4.79-4.39-10.58-4.46,10.58Zm39.79-9.28A5.51,5.51,0,0,1,515.7,333a6.15,6.15,0,0,1,5.35,6.36c0,4.31-3.56,6.94-9.31,6.94h-11.5V321.1h11.18C516.78,321.1,520.08,323.51,520.08,327.39Zm-5.14,1.43c0-1.87-1.48-3-3.91-2.93h-6v6h6C513.46,331.88,514.94,330.75,514.94,328.82Zm2,10.19c0-2.21-2-3.57-5.29-3.54H505v7.19h6.6C514.94,342.7,516.93,341.34,516.93,339Zm40.32-5c0,7.24-5.83,12.81-13.42,12.81S530.4,341.27,530.4,334s5.83-12.73,13.43-12.73S557.25,326.8,557.25,334Zm-21.92,0a8.55,8.55,0,0,0,8.57,8.49,8.46,8.46,0,1,0-8.57-8.49Zm48.6,12.23L579.7,339a6,6,0,0,1-.87,0h-5.51v7.19h-4.79V321.1H579c6.47,0,10.16,3.13,10.16,8.66,0,3.95-1.76,6.79-5,8.16l5.5,8.34Zm-10.61-10.79h5.85c3.7,0,5.77-1.59,5.77-4.84s-2.07-4.74-5.77-4.74h-5.85Zm45,6H606l-2.23,4.8h-5l11-25.16h5l10.89,25.16h-5.17Zm-1.73-4.79-4.39-10.58-4.46,10.58Zm34.62-15.57v4.79H642.8v20.37H638V325.89h-7.19V321.1Zm34,12.93c0,7.24-5.83,12.81-13.42,12.81s-13.42-5.57-13.42-12.81,5.83-12.73,13.42-12.73S685.18,326.8,685.18,334Zm-21.91,0a8.54,8.54,0,0,0,8.56,8.49,8.46,8.46,0,1,0-8.56-8.49Zm48.84,12.23L707.89,339a6.12,6.12,0,0,1-.87,0H701.5v7.19h-4.79V321.1h10.44c6.48,0,10.16,3.13,10.16,8.66,0,3.95-1.75,6.79-5,8.16l5.51,8.34ZM701.5,335.47h5.85c3.7,0,5.77-1.59,5.77-4.84s-2.07-4.74-5.77-4.74H701.5Zm33.55-14.37v25.16h-4.8V321.1ZM772.89,334c0,7.24-5.83,12.81-13.42,12.81s-13.42-5.57-13.42-12.81,5.83-12.73,13.42-12.73S772.89,326.8,772.89,334ZM751,334a8.54,8.54,0,0,0,8.57,8.49A8.46,8.46,0,1,0,751,334Zm56.61-12.93,7.75,16.14,7.72-16.14h5.43v25.16h-3.6l0-16.64-7.41,14.24h-3.12l-7.41-14.24v16.64h-4.79V321.1Zm53.24,0v4.79H847.65v6h12v4.79h-12v6H862v4.79H842.86V321.1ZM858,315l-4.46,3.7h-4l3.82-5.54Zm39.58,18.68c0,7.33-5.54,12.58-13.3,12.58H874V321.1h10.46C892.09,321.1,897.59,326.31,897.59,333.68Zm-4.87.63a8.1,8.1,0,0,0-8.32-8.42h-5.6v16.77h5.78A8,8,0,0,0,892.72,334.31Zm20.82-13.21v25.16h-4.79V321.1Zm24.7,4.48a8.37,8.37,0,1,0,0,16.73,10.11,10.11,0,0,0,6.84-2.95l2.84,3.16a14.34,14.34,0,0,1-9.93,4.32A12.78,12.78,0,0,1,924.86,334c0-7.2,5.79-12.7,13.31-12.7a14,14,0,0,1,9.72,4l-2.81,3.52A9.47,9.47,0,0,0,938.24,325.58ZM983.43,334c0,7.24-5.83,12.81-13.42,12.81s-13.42-5.57-13.42-12.81S962.42,321.3,970,321.3,983.43,326.8,983.43,334Zm-21.91,0a8.54,8.54,0,0,0,8.56,8.49,8.46,8.46,0,1,0-8.56-8.49Zm69.42-12.93v4.79h-13.17v6h12v4.79h-12v6h14.37v4.79H1013V321.1Zm17.86,0,13.29,17.21V321.1h4.79v25.16h-4.68l-13.29-17.18v17.18h-4.79V321.1Zm54,0v20.36h10.78v4.8H1098V321.1Zm29.52-6.1-4.46,3.7h-4l3.81-5.54Zm-3.16,6.1v25.16h-4.8V321.1Zm17.85,0,13.29,17.21V321.1h4.8v25.16h-4.69l-13.28-17.18v17.18h-4.8V321.1Zm49.23,0v4.79h-13.17v6h12v4.79h-12v6h14.37v4.79h-19.17V321.1Zm29,20.36H1213l-2.23,4.8h-5l11-25.16h5l10.89,25.16h-5.16Zm-1.73-4.79-4.39-10.58-4.46,10.58Z"/><path class="cls-1" d="M136,250.36A85.9,85.9,0,0,1,251.52,123.48a134.36,134.36,0,0,1,17.66-24.64,116.31,116.31,0,0,0-154.64,8.62c-45.3,45.26-45.3,119,0,164.33a116.33,116.33,0,0,0,154.61,8.62,133.81,133.81,0,0,1-17.67-24.64A86.06,86.06,0,0,1,136,250.36Z"/><path class="cls-1" d="M93.16,293.17c-57.09-57.08-57.09-150,0-207.13,54.47-54.47,141.6-57,199.07-7.43a131.17,131.17,0,0,1,28.3-15.13c-69-67.74-180.25-67.36-248.79,1.14-68.92,68.91-68.92,181,0,250,68.54,68.49,179.8,68.87,248.79,1.14a130.76,130.76,0,0,1-28.35-15.09C234.71,350.13,147.63,347.63,93.16,293.17Z"/><path class="cls-1" d="M232.37,189.62a39.13,39.13,0,1,0-39.13,39.13A39.13,39.13,0,0,0,232.37,189.62Z"/><path class="cls-1" d="M369.3,228.34q20.73,0,33.9-16.41l18,18.57q-21.47,24.18-50.59,24.17t-48-18.39q-18.85-18.4-18.85-46.44T323,143q19.21-18.75,47-18.75,31,0,51.94,23.62l-17.49,19.84q-13.35-16.59-33.19-16.59a38.68,38.68,0,0,0-27.14,10.37q-11.28,10.38-11.27,27.95t10.64,28.23A35.13,35.13,0,0,0,369.3,228.34Z"/><path class="cls-1" d="M461.91,200.51v52.31H435.55V118.64h27.56v47.74q12.22-12.48,27.43-12.48a34.19,34.19,0,0,1,25.63,10.85q10.43,10.86,10.43,28.94v59.13H499.05v-53q0-22.36-16.65-22.36A20.09,20.09,0,0,0,468,183.29Q461.91,189.15,461.91,200.51Z"/><path class="cls-1" d="M631.27,239.37q-16.41,15.51-38.5,15.51t-36.52-13.62q-14.43-13.62-14.43-36.52t14.7-36.43a49.56,49.56,0,0,1,34.71-13.53q20,0,34,12.09t14,33.18v14.43h-70.7a19.27,19.27,0,0,0,8.3,13,26.53,26.53,0,0,0,15.87,5q14.24,0,23.44-9.55ZM605.75,182a20.43,20.43,0,0,0-13.61-4.69,24.36,24.36,0,0,0-14.7,4.87,18.63,18.63,0,0,0-7.76,13.16h42.57Q611.34,186.65,605.75,182Z"/><path class="cls-1" d="M683.53,252.82H656V118.64h27.55v69.18l30.07-32h34L710.72,195l38.34,57.79H717l-24.67-37.09-8.82,9.18Z"/><path class="cls-1" d="M794.94,175v44.77q0,5.4,2.8,8.46a8.67,8.67,0,0,0,6.63,3q7.33,0,12.39-6.63l9.78,18.33q-12.22,11.17-25.75,11.17a31.88,31.88,0,0,1-22.86-8.9q-9.34-8.91-9.34-24.26V175H757.81V155.78h10.78V127h26.35v28.75h24V175Z"/><path class="cls-1" d="M944.41,252.82l-11.86-27.56H879.08l-11.86,27.56H837.88L892.23,127H919.4l54.34,125.79ZM905.9,164.69,890,201.3h31.56Z"/><path class="cls-1" d="M1011.78,200.51v52.31H984.22V118.64h27.56v47.74q12.22-12.48,27.43-12.48a34.19,34.19,0,0,1,25.63,10.85q10.42,10.86,10.43,28.94v59.13h-26.36v-53q0-22.36-16.64-22.36a20.12,20.12,0,0,0-14.37,5.86Q1011.78,189.15,1011.78,200.51Z"/><path class="cls-1" d="M1191.93,204.71q0,21.1-14.6,35.53t-36.7,14.43q-22.1,0-36.71-14.43t-14.6-35.53q0-21.09,14.6-35.61t36.71-14.52q22.08,0,36.7,14.52T1191.93,204.71Zm-75.38,0q0,11.91,6.76,19.39a23.76,23.76,0,0,0,34.63,0q6.76-7.48,6.76-19.39t-6.76-19.47a23.57,23.57,0,0,0-34.63,0Q1116.55,192.82,1116.55,204.71Z"/><path class="cls-1" d="M1259.55,179.74q-12,0-17.86,8.62t-5.89,22.78v41.68h-27.56v-97h27.56v12.89a45,45,0,0,1,12.94-10.17,34.78,34.78,0,0,1,15.81-4.35l.18,25.59Z"/><path class="cls-1" d="M1360.38,252.82h-25.15V241.07q-10.49,13.19-25.94,13.19t-25.94-8.95q-10.49-8.94-10.48-23.86t10.84-22.32q10.85-7.41,29.65-7.41h19.47v-.54q0-15.56-16.72-15.55a46,46,0,0,0-15.15,2.8,49.43,49.43,0,0,0-13.5,7l-12.31-17.53q19.47-13.92,44.46-13.92,18,0,29.39,8.86t11.38,28Zm-27.55-36v-4.69h-16.95q-16.23,0-16.23,10.1a9.3,9.3,0,0,0,3.87,8q3.88,2.79,11.1,2.79a19.75,19.75,0,0,0,12.71-4.41A14.39,14.39,0,0,0,1332.83,216.77Z"/></svg>