<svg id="Capa_1" data-name="Capa 1" xmlns="http://www.w3.org/2000/svg" viewBox="0 0 700 700"><defs><style>.cls-1{fill:none;stroke:#fff;stroke-linecap:round;stroke-linejoin:round;stroke-width:20px;}</style></defs><polygon class="cls-1" points="416.82 187.22 416.82 20.12 587.72 187.22 416.82 187.22"/><path class="cls-1" d="M416.82,20.12H122.72a15.73,15.73,0,0,0-15.9,15.55v610.1a15.73,15.73,0,0,0,15.9,15.54h449.1a15.73,15.73,0,0,0,15.9-15.54V187.22Z"/><line class="cls-1" x1="519.59" y1="553.11" x2="174.95" y2="553.11"/><line class="cls-1" x1="519.59" y1="482.31" x2="174.95" y2="482.31"/><line class="cls-1" x1="519.59" y1="411.52" x2="174.95" y2="411.52"/><line class="cls-1" x1="519.59" y1="340.72" x2="174.95" y2="340.72"/><line class="cls-1" x1="519.59" y1="269.92" x2="174.95" y2="269.92"/><line class="cls-1" x1="376.74" y1="199.12" x2="174.95" y2="199.12"/><line class="cls-1" x1="368.73" y1="128.32" x2="174.95" y2="128.32"/></svg>