
<svg xmlns="http://www.w3.org/2000/svg" xmlns:xlink="http://www.w3.org/1999/xlink" x="0px" y="0px"
	 viewBox="0 0 45.9 54" style="enable-background:new 0 0 45.9 54;" xml:space="preserve">
<style type="text/css">
	.st0{fill:#4F2D83;}
</style>
<g  transform="translate(0.025 0.001)">
	<g  transform="translate(-0.025 -0.001)">
		<g >
			<path class="st0" d="M17.7,36.3c-5.1-5.1-5.1-13.4,0-18.6c4.8-4.8,12.5-5.2,17.7-0.8c0.7-1.4,1.6-2.6,2.7-3.8
				C30.4,7,19.2,8.3,13.1,15.9s-4.9,18.8,2.8,24.9c6.5,5.2,15.7,5.2,22.1,0c-1-1.1-1.9-2.4-2.7-3.8C30.2,41.4,22.5,41,17.7,36.3z"/>
			<path class="st0" d="M11.2,42.8c-8.7-8.7-8.8-22.9,0-31.7c8.3-8.3,21.6-8.8,30.4-1.1c1.3-0.9,2.8-1.7,4.3-2.3
				C35.3-2.8,18.2-2.6,7.7,8S-2.6,35.7,8,46.2c10.5,10.3,27.4,10.4,37.9,0c-1.5-0.6-3-1.4-4.3-2.3C32.7,51.6,19.5,51.1,11.2,42.8z"
				/>
			<path class="st0" d="M32.4,27c0-3.3-2.7-6-6-6s-6,2.7-6,6s2.7,6,6,6C29.8,33,32.4,30.3,32.4,27
				C32.4,27,32.4,27,32.4,27z"/>
		</g>
	</g>
</g>
</svg>
