<svg id="Capa_1" data-name="Capa 1" xmlns="http://www.w3.org/2000/svg" viewBox="0 0 700 700"><defs><style>.cls-1{fill:none;stroke:#fff;stroke-miterlimit:10;stroke-width:20px;}</style></defs><path class="cls-1" d="M268.32,460.78c-59.69-59.75-59.69-156.95,0-216.71,56.38-56.31,146.06-59.46,206.11-9.58a239.4,239.4,0,0,1,31.5-43.94c-81.31-65-200.52-59.91-275.81,15.38-80.77,80.71-80.77,212.28,0,293.06,75.21,75.2,194.43,80.4,275.75,15.37a237.17,237.17,0,0,1-31.51-43.93C414.29,520.23,324.69,517.07,268.32,460.78Z"/><path class="cls-1" d="M192,537.13c-101.82-101.8-101.82-267.6,0-369.4,97.13-97.14,252.53-101.59,355-13.26a234.84,234.84,0,0,1,50.49-27c-123-120.8-321.47-120.12-443.7,2-122.91,122.9-122.91,322.9,0,445.81,122.23,122.15,320.66,122.83,443.7,2a232.48,232.48,0,0,1-50.56-26.91C444.43,638.7,289.13,634.25,192,537.13Z"/><path class="cls-1" d="M440.27,352.46a69.79,69.79,0,1,0-69.79,69.78A69.79,69.79,0,0,0,440.27,352.46Z"/></svg>