<svg class="cls-1" xmlns="http://www.w3.org/2000/svg" viewBox="0 0 480.025 126.639"><defs><style>.cls-1{fill: #fff; stroke:#fff; color:#fff;}</style></defs><g transform="translate(0.025 0.001)"> <g> <g> <path d="M41.6,85.1A30.79,30.79,0,0,1,83,39.6a44.362,44.362,0,0,1,6.3-8.8,41.638,41.638,0,1,0,0,65.1A47.462,47.462,0,0,1,83,87.1,30.864,30.864,0,0,1,41.6,85.1Z"></path> <path d="M26.2,100.5a52.542,52.542,0,0,1,71.4-77,45.371,45.371,0,0,1,10.2-5.4,63.393,63.393,0,1,0-.1,90.4,47.618,47.618,0,0,1-10.2-5.4A52.476,52.476,0,0,1,26.2,100.5Z"></path> <path d="M76.1,63.4a14,14,0,1,0-14,14A13.977,13.977,0,0,0,76.1,63.4Z"></path> </g> </g> <g> <path d="M124.6,77.2a15.059,15.059,0,0,0,12.2-5.9l6.5,6.7c-5.1,5.8-11.2,8.7-18.1,8.7-7,0-12.7-2.2-17.2-6.6a22.306,22.306,0,0,1-6.8-16.7,22.549,22.549,0,0,1,6.9-16.8,23.081,23.081,0,0,1,16.8-6.7,23.709,23.709,0,0,1,18.6,8.5l-6.3,7.1a14.626,14.626,0,0,0-11.9-5.9,13.68,13.68,0,0,0-9.7,3.7c-2.7,2.5-4,5.8-4,10a13.731,13.731,0,0,0,3.8,10.1A12.228,12.228,0,0,0,124.6,77.2Z"></path> <path d="M158.1,67.4V86.2h-9.7v-48h9.7V55.3a13.433,13.433,0,0,1,9.9-4.5,12.319,12.319,0,0,1,9.2,3.9A14.213,14.213,0,0,1,181,65V86.1h-9.7v-19c0-5.3-2-8-5.9-8a7.276,7.276,0,0,0-5.1,2.1C158.8,62.6,158.1,64.7,158.1,67.4Z"></path> <path d="M218.7,81.1a19.435,19.435,0,0,1-13.8,5.6,18.206,18.206,0,0,1-13.1-4.9c-3.4-3.3-5.2-7.6-5.2-13.1s1.8-9.8,5.3-13.1a18.762,18.762,0,0,1,24.6-.6c3.3,2.9,5,6.9,5,11.9v5.2H196.1a7.17,7.17,0,0,0,3,4.7,9.654,9.654,0,0,0,5.7,1.8,11.081,11.081,0,0,0,8.4-3.4Zm-9.3-20.6a7.481,7.481,0,0,0-4.9-1.7,9.279,9.279,0,0,0-5.3,1.7,6.823,6.823,0,0,0-2.8,4.7h15.3A6.842,6.842,0,0,0,209.4,60.5Z"></path> <path d="M237.4,86.2h-9.7v-48h9.7V62.8l10.8-11.5h12.2L247.1,65.4l13.8,20.8H249.4l-8.9-13.3-3.2,3.3v10Z"></path> <path d="M277.5,58.3V73.9a4.292,4.292,0,0,0,1,3.1,3.074,3.074,0,0,0,2.5,1.1,5.586,5.586,0,0,0,4.6-2.5l3.6,6.8a13.727,13.727,0,0,1-9.5,4.1,11.648,11.648,0,0,1-12-12.3v-16h-4.1v-7h4.1V41h9.8V51.4h8.4v7h-8.4Z"></path> <path d="M330.6,86.2l-4.2-9.8H307.5l-4.2,9.8H292.6L312.1,41h9.8l19.5,45.2ZM317,54.4l-5.7,13.1h11.3Z"></path> <path d="M355,67.4V86.2h-9.7v-48H355V55.3a13.433,13.433,0,0,1,9.9-4.5,12.319,12.319,0,0,1,9.2,3.9A14.213,14.213,0,0,1,377.9,65V86.1h-9.7v-19c0-5.3-2-8-5.9-8a7.276,7.276,0,0,0-5.1,2.1C355.7,62.6,355,64.7,355,67.4Z"></path> <path d="M419.6,68.8a17.046,17.046,0,0,1-5.2,12.7,19.354,19.354,0,0,1-26.4,0,17.046,17.046,0,0,1-5.2-12.7A17.426,17.426,0,0,1,388,56a19.354,19.354,0,0,1,26.4,0A17.659,17.659,0,0,1,419.6,68.8Zm-27.1,0a10.259,10.259,0,0,0,2.4,7,8.469,8.469,0,0,0,12.4,0,10.085,10.085,0,0,0,2.4-7,10.259,10.259,0,0,0-2.4-7,8.469,8.469,0,0,0-12.4,0A10.085,10.085,0,0,0,392.5,68.8Z"></path> <path d="M443.8,59.9a7.38,7.38,0,0,0-6.5,3.1,14.109,14.109,0,0,0-2.1,8.1V86.2h-9.7V51.4h9.7V56a17.234,17.234,0,0,1,4.7-3.6,13.633,13.633,0,0,1,5.7-1.6l.1,9.1Z"></path> <path d="M480,86.2h-9.1V82a11.556,11.556,0,0,1-9.3,4.7,14,14,0,0,1-9.3-3.2,10.657,10.657,0,0,1-3.8-8.5c0-3.6,1.3-6.2,3.9-8s6.1-2.7,10.6-2.7h7.2v-.2c0-3.7-2-5.6-5.9-5.6a14.6,14.6,0,0,0-5.3,1,18.021,18.021,0,0,0-4.8,2.5l-4.3-6.3a26.233,26.233,0,0,1,15.7-5,16.041,16.041,0,0,1,10.3,3.2c2.7,2.1,4,5.5,4,10V86.2Zm-9.8-13.3V71.2h-6.1c-3.9,0-5.8,1.2-5.8,3.6a3.424,3.424,0,0,0,1.4,2.9,6.579,6.579,0,0,0,4,1,7.163,7.163,0,0,0,4.6-1.6A4.958,4.958,0,0,0,470.2,72.9Z"></path> </g> </g> </svg>