<svg id="Capa_1" data-name="Capa 1" xmlns="http://www.w3.org/2000/svg" viewBox="0 0 350 350"><defs><style>.cls-1{fill:#452e82;}</style></defs><path class="cls-1" d="M135.18,231.51a79.9,79.9,0,0,1,107.49-118A124.7,124.7,0,0,1,259.1,90.57a108.07,108.07,0,1,0,0,168.89,123.69,123.69,0,0,1-16.43-22.91A80.05,80.05,0,0,1,135.18,231.51Z"/><path class="cls-1" d="M95.36,271.34c-53.1-53.1-53.1-139.57,0-192.67C146,28,227.07,25.69,280.52,71.75a122.52,122.52,0,0,1,26.34-14.07C242.68-5.33,139.19-5,75.43,58.74c-64.1,64.1-64.1,168.42,0,232.52,63.76,63.71,167.25,64.07,231.43,1.06a121.08,121.08,0,0,1-26.37-14C227,324.32,146,322,95.36,271.34Z"/><path class="cls-1" d="M224.86,175a36.4,36.4,0,1,0-36.4,36.4A36.41,36.41,0,0,0,224.86,175Z"/></svg>