<svg id="Capa_1" data-name="Capa 1" xmlns="http://www.w3.org/2000/svg" viewBox="0 0 700 700"><defs><style>.cls-1{fill:#4F2D83;}</style></defs><path class="cls-1" d="M656.48,230.24a17.07,17.07,0,0,0-13.28-7.88L194.67,192.25l-8.37-58.67a17.11,17.11,0,0,0-12.82-14.2L45.18,87.51a17.12,17.12,0,1,0-8.26,33.22L154,149.83,198.62,462.5c-6.22,5.84-13.66,13.15-20.82,21C159.94,503,137.9,531.41,152.52,553a17.2,17.2,0,0,0,14.37,7.51c59.5-.71,337.71.48,369.24.62h.52a17.12,17.12,0,0,0,.1-34.23h-.47c-28.74-.13-262.26-1.13-348.88-.76,3.67-5.59,9.84-13.54,20.19-24.34,12.12-12.67,24.32-23.31,27.35-25.91l322,.53a17.14,17.14,0,0,0,16-10.94L658,245.61A17.1,17.1,0,0,0,656.48,230.24Z"/><path class="cls-1" d="M205.29,660.83a49.83,49.83,0,1,1,49.91-49.75A49.89,49.89,0,0,1,205.29,660.83Zm.11-65A15.17,15.17,0,1,0,220.54,611,15.19,15.19,0,0,0,205.4,595.83Z"/><path class="cls-1" d="M497.11,661.31A49.83,49.83,0,1,1,547,611.57,49.88,49.88,0,0,1,497.11,661.31Zm.11-65a15.17,15.17,0,1,0,15.14,15.19A15.18,15.18,0,0,0,497.22,596.32Z"/></svg>