<svg width="270" height="36" viewBox="0 0 270 36" fill="none" xmlns="http://www.w3.org/2000/svg">
<path d="M65.1179 14.311C61.6469 17.3645 58.5683 17.556 54.8711 14.821C53.171 13.5649 51.6483 12.0681 49.9439 10.8187C48.625 9.85216 47.231 8.89222 45.7258 8.29529C43.1216 7.25965 40.4796 7.61159 38.1012 9.06367C36.4854 10.0504 35.0136 11.2798 33.5154 12.4512C33.3048 12.6138 33.1475 12.703 32.9878 12.6963C32.8282 12.703 32.6709 12.6138 32.4603 12.4512C30.962 11.2798 29.4901 10.0504 27.8744 9.06367C25.4984 7.61159 22.8541 7.25965 20.2498 8.29529C18.7447 8.89222 17.3506 9.85216 16.0318 10.8187C14.3272 12.0681 12.8046 13.5649 11.1046 14.821C7.40738 17.556 4.32881 17.3645 0.857785 14.311C0.571857 14.0592 0.285929 13.8076 0 13.5582C0.516456 16.4313 1.63131 19.0082 3.27596 21.3467C5.37492 24.3312 8.12782 26.4692 11.5833 27.643C19.6601 30.3869 29.8627 26.5628 32.9878 19.3444C36.113 26.5628 46.3156 30.3869 54.3924 27.643C57.8479 26.4692 60.6007 24.3312 62.6998 21.3467C64.3443 19.0082 65.4592 16.4313 65.9757 13.5582C65.6897 13.8076 65.4039 14.0592 65.1179 14.311Z" fill="url(#paint0_linear)"/>
<path d="M86.6123 12.6094C87.0652 12.0156 87.6821 11.5156 88.463 11.1094C89.2439 10.7031 90.1262 10.5 91.1102 10.5C92.2346 10.5 93.2576 10.7812 94.179 11.3437C95.1161 11.8906 95.8501 12.6641 96.3811 13.6641C96.9121 14.6641 97.1776 15.8125 97.1776 17.1094C97.1776 18.4062 96.9121 19.5703 96.3811 20.6016C95.8501 21.6172 95.1161 22.4141 94.179 22.9922C93.2576 23.5547 92.2346 23.8359 91.1102 23.8359C90.1262 23.8359 89.2517 23.6406 88.4864 23.25C87.7211 22.8437 87.0964 22.3437 86.6123 21.75V29.7656H83.9417V10.7109H86.6123V12.6094ZM94.4601 17.1094C94.4601 16.2187 94.2727 15.4531 93.8979 14.8125C93.5387 14.1562 93.0546 13.6641 92.4455 13.3359C91.852 12.9922 91.2117 12.8203 90.5245 12.8203C89.8529 12.8203 89.2126 12.9922 88.6035 13.3359C88.0101 13.6797 87.5259 14.1797 87.1511 14.8359C86.7919 15.4922 86.6123 16.2656 86.6123 17.1562C86.6123 18.0469 86.7919 18.8281 87.1511 19.5C87.5259 20.1562 88.0101 20.6562 88.6035 21C89.2126 21.3437 89.8529 21.5156 90.5245 21.5156C91.2117 21.5156 91.852 21.3437 92.4455 21C93.0546 20.6406 93.5387 20.125 93.8979 19.4531C94.2727 18.7812 94.4601 18 94.4601 17.1094Z" fill="url(#paint1_linear)"/>
<path d="M98.9284 17.1094C98.9284 15.8125 99.1939 14.6641 99.7249 13.6641C100.271 12.6641 101.006 11.8906 101.927 11.3437C102.864 10.7812 103.895 10.5 105.019 10.5C106.034 10.5 106.917 10.7031 107.666 11.1094C108.432 11.5 109.041 11.9922 109.494 12.5859V10.7109H112.188V23.625H109.494V21.7031C109.041 22.3125 108.424 22.8203 107.643 23.2266C106.862 23.6328 105.972 23.8359 104.972 23.8359C103.864 23.8359 102.848 23.5547 101.927 22.9922C101.006 22.4141 100.271 21.6172 99.7249 20.6016C99.1939 19.5703 98.9284 18.4062 98.9284 17.1094ZM109.494 17.1562C109.494 16.2656 109.306 15.4922 108.931 14.8359C108.572 14.1797 108.096 13.6797 107.502 13.3359C106.909 12.9922 106.269 12.8203 105.581 12.8203C104.894 12.8203 104.254 12.9922 103.661 13.3359C103.067 13.6641 102.583 14.1562 102.208 14.8125C101.849 15.4531 101.669 16.2187 101.669 17.1094C101.669 18 101.849 18.7812 102.208 19.4531C102.583 20.125 103.067 20.6406 103.661 21C104.27 21.3437 104.91 21.5156 105.581 21.5156C106.269 21.5156 106.909 21.3437 107.502 21C108.096 20.6562 108.572 20.1562 108.931 19.5C109.306 18.8281 109.494 18.0469 109.494 17.1562Z" fill="url(#paint2_linear)"/>
<path d="M120.896 10.5C121.896 10.5 122.778 10.7031 123.543 11.1094C124.324 11.5 124.933 11.9922 125.371 12.5859V10.7109H128.065V23.8359C128.065 25.0234 127.815 26.0781 127.315 27C126.815 27.9375 126.089 28.6719 125.136 29.2031C124.199 29.7344 123.075 30 121.763 30C120.014 30 118.561 29.5859 117.406 28.7578C116.25 27.9453 115.594 26.8359 115.438 25.4297H118.085C118.288 26.1015 118.718 26.6406 119.373 27.0469C120.045 27.4687 120.842 27.6797 121.763 27.6797C122.841 27.6797 123.707 27.3515 124.363 26.6953C125.035 26.0391 125.371 25.0859 125.371 23.8359V21.6797C124.918 22.2891 124.301 22.8047 123.52 23.2266C122.755 23.6328 121.88 23.8359 120.896 23.8359C119.772 23.8359 118.741 23.5547 117.804 22.9922C116.882 22.4141 116.148 21.6172 115.602 20.6016C115.071 19.5703 114.805 18.4062 114.805 17.1094C114.805 15.8125 115.071 14.6641 115.602 13.6641C116.148 12.6641 116.882 11.8906 117.804 11.3437C118.741 10.7812 119.772 10.5 120.896 10.5ZM125.371 17.1562C125.371 16.2656 125.183 15.4922 124.808 14.8359C124.449 14.1797 123.973 13.6797 123.379 13.3359C122.786 12.9922 122.146 12.8203 121.458 12.8203C120.771 12.8203 120.131 12.9922 119.537 13.3359C118.944 13.6641 118.46 14.1562 118.085 14.8125C117.726 15.4531 117.546 16.2187 117.546 17.1094C117.546 18 117.726 18.7812 118.085 19.4531C118.46 20.125 118.944 20.6406 119.537 21C120.147 21.3437 120.787 21.5156 121.458 21.5156C122.146 21.5156 122.786 21.3437 123.379 21C123.973 20.6562 124.449 20.1562 124.808 19.5C125.183 18.8281 125.371 18.0469 125.371 17.1562Z" fill="url(#paint3_linear)"/>
<path d="M130.682 17.1094C130.682 15.8125 130.948 14.6641 131.479 13.6641C132.025 12.6641 132.759 11.8906 133.681 11.3437C134.618 10.7812 135.649 10.5 136.773 10.5C137.788 10.5 138.671 10.7031 139.42 11.1094C140.186 11.5 140.795 11.9922 141.248 12.5859V10.7109H143.942V23.625H141.248V21.7031C140.795 22.3125 140.178 22.8203 139.397 23.2266C138.616 23.6328 137.726 23.8359 136.726 23.8359C135.617 23.8359 134.602 23.5547 133.681 22.9922C132.759 22.4141 132.025 21.6172 131.479 20.6016C130.948 19.5703 130.682 18.4062 130.682 17.1094ZM141.248 17.1562C141.248 16.2656 141.06 15.4922 140.685 14.8359C140.326 14.1797 139.85 13.6797 139.256 13.3359C138.663 12.9922 138.023 12.8203 137.335 12.8203C136.648 12.8203 136.008 12.9922 135.414 13.3359C134.821 13.6641 134.337 14.1562 133.962 14.8125C133.603 15.4531 133.423 16.2187 133.423 17.1094C133.423 18 133.603 18.7812 133.962 19.4531C134.337 20.125 134.821 20.6406 135.414 21C136.023 21.3437 136.664 21.5156 137.335 21.5156C138.023 21.5156 138.663 21.3437 139.256 21C139.85 20.6562 140.326 20.1562 140.685 19.5C141.06 18.8281 141.248 18.0469 141.248 17.1562Z" fill="url(#paint4_linear)"/>
<path d="M149.942 19.4921C149.942 18.5958 150.123 17.8102 150.486 17.1353C150.86 16.4499 151.373 15.9227 152.024 15.5536C152.675 15.1845 153.423 15 154.266 15C155.334 15 156.215 15.2531 156.909 15.7592C157.614 16.2548 158.089 16.9666 158.335 17.8945H156.365C156.204 17.4622 155.948 17.1248 155.596 16.8822C155.243 16.6397 154.8 16.5184 154.266 16.5184C153.519 16.5184 152.921 16.7821 152.472 17.3093C152.035 17.826 151.816 18.5536 151.816 19.4921C151.816 20.4306 152.035 21.1634 152.472 21.6907C152.921 22.2179 153.519 22.4815 154.266 22.4815C155.324 22.4815 156.023 22.0228 156.365 21.1054H158.335C158.079 21.9912 157.598 22.6977 156.893 23.2249C156.188 23.7416 155.313 24 154.266 24C153.423 24 152.675 23.8155 152.024 23.4464C151.373 23.0668 150.86 22.5395 150.486 21.8647C150.123 21.1793 149.942 20.3884 149.942 19.4921Z" fill="url(#paint5_linear)"/>
<path d="M163.983 24C163.15 24 162.397 23.8155 161.724 23.4464C161.051 23.0668 160.523 22.5395 160.139 21.8647C159.754 21.1793 159.562 20.3884 159.562 19.4921C159.562 18.6063 159.759 17.8207 160.155 17.1353C160.55 16.4499 161.089 15.9227 161.772 15.5536C162.456 15.1845 163.219 15 164.063 15C164.906 15 165.67 15.1845 166.353 15.5536C167.037 15.9227 167.576 16.4499 167.971 17.1353C168.366 17.8207 168.564 18.6063 168.564 19.4921C168.564 20.3778 168.361 21.1634 167.955 21.8488C167.549 22.5343 166.994 23.0668 166.289 23.4464C165.595 23.8155 164.826 24 163.983 24ZM163.983 22.4341C164.453 22.4341 164.89 22.3234 165.296 22.1019C165.713 21.8805 166.049 21.5483 166.305 21.1054C166.562 20.6626 166.69 20.1248 166.69 19.4921C166.69 18.8594 166.567 18.3269 166.321 17.8945C166.076 17.4517 165.75 17.1195 165.344 16.8981C164.938 16.6766 164.501 16.5659 164.031 16.5659C163.561 16.5659 163.123 16.6766 162.717 16.8981C162.322 17.1195 162.007 17.4517 161.772 17.8945C161.537 18.3269 161.42 18.8594 161.42 19.4921C161.42 20.4306 161.66 21.1582 162.141 21.6749C162.632 22.181 163.246 22.4341 163.983 22.4341Z" fill="url(#paint6_linear)"/>
<path d="M174.822 15C175.516 15 176.135 15.1423 176.68 15.4271C177.235 15.7118 177.667 16.1336 177.977 16.6924C178.287 17.2513 178.442 17.9262 178.442 18.717V23.8576H176.632V18.9859C176.632 18.2056 176.434 17.6098 176.039 17.1986C175.644 16.7768 175.105 16.5659 174.421 16.5659C173.738 16.5659 173.193 16.7768 172.787 17.1986C172.392 17.6098 172.195 18.2056 172.195 18.9859V23.8576H170.369V15.1423H172.195V16.1388C172.494 15.7803 172.873 15.5009 173.332 15.3005C173.802 15.1002 174.298 15 174.822 15Z" fill="url(#paint7_linear)"/>
<path d="M269.942 3.44383C269.942 5.34584 268.358 6.88774 266.406 6.88774C264.452 6.88774 262.869 5.34584 262.869 3.44383C262.869 1.5419 264.452 0 266.406 0C268.358 0 269.942 1.5419 269.942 3.44383Z" fill="url(#paint8_linear)"/>
<path fill-rule="evenodd" clip-rule="evenodd" d="M267.792 18.7039C267.607 18.4233 267.251 18.2419 266.884 18.2419C266.537 18.2419 266.224 18.4012 266.028 18.6794C265.803 18.9979 265.525 19.3762 265.203 19.8035C264.849 20.2723 264.467 20.7217 264.067 21.1392C263.67 21.5547 263.283 21.916 262.917 22.213C262.538 22.5203 262.293 22.5848 262.155 22.5848C262.058 22.5848 261.877 22.5848 261.836 22.1176C261.794 21.6284 261.868 20.9922 262.056 20.2266C262.249 19.44 262.529 18.567 262.887 17.6315C263.252 16.6794 263.619 15.7701 263.976 14.9289C264.348 14.0545 264.667 13.3275 264.952 12.7065C265.236 12.0883 265.413 11.686 265.481 11.5101C265.708 11.0008 265.625 10.4989 265.241 10.0578C264.889 9.65357 264.417 9.37032 263.84 9.21565C263.276 9.06459 262.661 9.05587 262.02 9.18958C261.334 9.33315 260.79 9.72137 260.403 10.3427C260.062 10.8881 259.619 11.7451 259.085 12.8897C258.55 14.0369 258.033 15.3107 257.548 16.6756C257.253 17.5034 256.982 18.345 256.736 19.1921C256.327 20.6012 255.487 21.8536 254.327 22.7803C253.912 23.1121 253.475 23.4248 253.021 23.7154C252.82 23.8442 252.618 23.9633 252.415 24.0725C252.351 24.107 252.284 24.0312 252.328 23.9744C252.679 23.5232 253.023 23.0355 253.359 22.5144C254.052 21.4415 254.683 20.1565 255.236 18.6954C255.819 17.1482 256.186 15.7372 256.324 14.5007C256.464 13.2492 256.415 12.157 256.179 11.2547C255.935 10.3231 255.508 9.59013 254.91 9.07616C254.29 8.54522 253.525 8.2759 252.635 8.2759C251.585 8.2759 250.62 8.54759 249.768 9.08346C249.185 9.4494 248.645 9.8583 248.156 10.3042C248.115 10.3412 248.082 10.3367 248.052 10.291C247.944 10.1217 247.797 9.96224 247.613 9.81307C247.199 9.47871 246.702 9.25472 246.133 9.14757C245.562 9.04155 244.982 9.07995 244.416 9.26155C243.811 9.45585 243.36 9.85764 243.075 10.456C242.528 11.6087 241.95 12.9542 241.358 14.4548C240.767 15.9533 240.19 17.5197 239.644 19.1106C239.584 19.2871 239.524 19.4637 239.464 19.6401C239.002 20.9968 238.136 22.1875 236.977 23.0584C236.671 23.2881 236.355 23.5075 236.03 23.7154C235.829 23.8442 235.627 23.9633 235.424 24.0726C235.36 24.1071 235.293 24.0314 235.337 23.9744C235.688 23.5234 236.032 23.0359 236.368 22.5146C237.061 21.4424 237.692 20.1576 238.245 18.6954C238.828 17.1481 239.195 15.737 239.333 14.5007C239.473 13.2486 239.425 12.1565 239.188 11.2547C238.945 10.3234 238.518 9.59051 237.919 9.07616C237.3 8.54512 236.534 8.2759 235.644 8.2759C234.594 8.2759 233.629 8.54759 232.777 9.08327C232.194 9.4494 231.654 9.8583 231.165 10.3039C231.125 10.3408 231.091 10.3366 231.062 10.2906C230.953 10.1216 230.806 9.96214 230.622 9.81326C230.209 9.4788 229.711 9.25491 229.141 9.14757C228.57 9.04136 227.99 9.07995 227.426 9.26155C226.821 9.45547 226.37 9.85717 226.083 10.4562C225.536 11.6107 224.959 12.9561 224.367 14.4549C223.812 15.8631 223.272 17.3246 222.76 18.8038C222.373 19.9202 221.795 20.8171 220.931 21.6388C220.708 21.8509 220.49 22.043 220.281 22.213C219.902 22.5203 219.657 22.5848 219.518 22.5848C219.421 22.5848 219.24 22.5848 219.2 22.1173C219.157 21.6292 219.231 20.9932 219.42 20.2266C219.612 19.4404 219.892 18.5671 220.251 17.6315C220.612 16.6892 220.979 15.7798 221.34 14.9289C221.705 14.071 222.033 13.3231 222.315 12.7065C222.605 12.0761 222.778 11.6843 222.844 11.5099C223.072 11.0008 222.989 10.4989 222.605 10.0578C222.251 9.65291 221.771 9.36918 221.177 9.21471C220.597 9.0644 219.984 9.05606 219.358 9.19005C218.688 9.334 218.153 9.72194 217.767 10.3415C217.689 10.4643 217.609 10.5996 217.523 10.7498C217.493 10.8035 217.411 10.7914 217.398 10.7315C217.325 10.393 217.206 10.0732 217.044 9.7759C216.801 9.33286 216.441 8.96938 215.975 8.69524C215.502 8.41701 214.901 8.2759 214.189 8.2759C212.51 8.2759 210.808 9.03358 209.13 10.528C207.482 11.9955 206.116 14.3365 205.069 17.488C204.577 19.0076 204.289 20.4121 204.212 21.663C204.134 22.9289 204.239 24.0214 204.522 24.9095C204.814 25.8254 205.28 26.5485 205.908 27.0582C206.556 27.585 207.334 27.8522 208.221 27.8522C208.878 27.8522 209.504 27.7414 210.083 27.5227C210.644 27.3107 211.164 27.0382 211.628 26.7131C211.986 26.463 212.319 26.1801 212.621 25.8689C212.837 25.6472 213.217 25.7369 213.306 26.0301C213.405 26.3587 213.544 26.6512 213.721 26.9057C214.159 27.5336 214.853 27.8522 215.783 27.8522C216.814 27.8522 217.855 27.4743 218.877 26.7289C219.354 26.3819 219.82 26.0034 220.271 25.5964C220.373 25.505 220.532 25.6029 220.493 25.7321C220.229 26.5892 219.993 27.3834 219.78 28.1286C219.42 29.3811 219.128 30.4599 218.911 31.3353C218.62 32.5095 218.583 32.8287 218.583 32.9758C218.583 33.6957 218.811 34.3092 219.263 34.8C219.698 35.272 220.203 35.6106 220.765 35.8066C221.135 35.935 221.496 36 221.837 36C222.026 36 222.212 35.98 222.391 35.9405C222.794 35.8513 223.305 35.5888 223.454 34.8441L223.456 34.8297C223.515 34.4376 223.628 33.9062 223.792 33.2504C223.962 32.5697 224.168 31.795 224.405 30.9475C224.64 30.1045 224.908 29.1655 225.224 28.0769C225.37 27.5737 225.527 27.0465 225.693 26.4988C225.727 26.3874 225.881 26.3696 225.941 26.4702C226.015 26.5955 226.097 26.7178 226.188 26.8366C226.701 27.5086 227.518 27.8502 228.619 27.8522C228.84 27.8618 229.062 27.8669 229.278 27.8669C230.897 27.8669 232.417 27.5952 233.796 27.0595C235.113 26.5483 236.321 25.9235 237.396 25.2003C237.501 25.1293 237.639 25.228 237.602 25.348C237.294 26.3427 237.015 27.2738 236.77 28.1287C236.409 29.3901 236.117 30.4689 235.901 31.3354C235.611 32.5116 235.574 32.83 235.574 32.9758C235.574 33.6955 235.802 34.3088 236.254 34.8C236.689 35.2723 237.195 35.6109 237.756 35.8066C238.126 35.9349 238.486 36 238.828 36C239.016 36 239.203 35.98 239.383 35.9405C239.785 35.8513 240.296 35.5887 240.445 34.8441L240.447 34.8295C240.506 34.4361 240.62 33.9048 240.783 33.2502C240.953 32.5699 241.159 31.7953 241.396 30.9475C241.632 30.1008 241.9 29.162 242.215 28.0769C242.361 27.5727 242.518 27.0455 242.684 26.4985C242.718 26.387 242.872 26.3692 242.931 26.4698C243.005 26.5953 243.088 26.7176 243.179 26.8366C243.691 27.5085 244.509 27.8502 245.61 27.8522C245.831 27.8618 246.053 27.8669 246.27 27.8669C247.888 27.8669 249.408 27.5952 250.787 27.0595C252.331 26.4607 253.726 25.7069 254.934 24.8186C255.139 24.6674 255.339 24.5146 255.534 24.3602C255.624 24.2895 255.757 24.353 255.755 24.4655C255.754 24.516 255.754 24.5662 255.754 24.6159C255.754 25.5606 255.957 26.331 256.357 26.9057C256.796 27.5336 257.49 27.8522 258.42 27.8522C259.448 27.8522 260.496 27.4749 261.534 26.7307C262.521 26.0239 263.452 25.1882 264.303 24.2465C265.142 23.3184 265.88 22.3935 266.496 21.4974C267.118 20.5904 267.537 19.9702 267.776 19.6012C267.967 19.3068 267.973 18.9796 267.792 18.7039ZM250.809 13.9266C250.689 14.5763 250.497 15.3255 250.241 16.153C249.982 16.9789 249.652 17.85 249.262 18.7337C248.838 19.6255 248.399 20.4588 247.958 21.2104C247.522 21.9536 247.088 22.5931 246.669 23.111C246.261 23.6156 245.883 23.9886 245.545 24.2202C245.291 24.395 245.15 24.4138 245.101 24.4138C245.079 24.4138 245.06 24.4104 245.041 24.4018C244.999 24.3836 244.856 24.2898 244.795 23.8458C244.737 23.4393 244.768 22.9055 244.886 22.2585C245.006 21.5916 245.197 20.8363 245.454 20.0132C245.71 19.1916 246.04 18.3208 246.436 17.4248C246.828 16.5364 247.257 15.7073 247.711 14.9601C248.164 14.2137 248.606 13.5811 249.023 13.079C249.428 12.589 249.807 12.2215 250.149 11.987C250.404 11.812 250.545 11.7931 250.594 11.7931C250.616 11.7931 250.635 11.7968 250.652 11.8043C250.694 11.8225 250.837 11.9167 250.9 12.3608C250.957 12.7677 250.926 13.2945 250.809 13.9266ZM233.813 13.9267C233.693 14.5767 233.501 15.3259 233.244 16.153C232.985 16.9831 232.655 17.8541 232.266 18.7337C231.841 19.6269 231.402 20.4604 230.962 21.2104C230.525 21.9541 230.091 22.5936 229.672 23.111C229.265 23.6153 228.887 23.9882 228.549 24.2203C228.294 24.395 228.154 24.4138 228.105 24.4138C228.082 24.4138 228.064 24.4104 228.044 24.4018C228.002 24.3836 227.86 24.2901 227.798 23.8456C227.741 23.4412 227.771 22.9072 227.889 22.2585C228.009 21.5939 228.201 20.8387 228.458 20.0132C228.714 19.1913 229.044 18.3203 229.44 17.4247C229.833 16.5342 230.261 15.705 230.714 14.9602C231.169 14.213 231.61 13.58 232.026 13.0792C232.433 12.5879 232.813 12.2203 233.153 11.9869C233.408 11.812 233.549 11.7931 233.597 11.7931C233.62 11.7931 233.639 11.7968 233.656 11.8043C233.698 11.8225 233.841 11.9167 233.904 12.3608C233.96 12.7666 233.93 13.2936 233.813 13.9267ZM215.397 13.7604C215.322 14.4195 215.177 15.1734 214.965 16.001C214.753 16.8255 214.462 17.6943 214.1 18.5833C213.739 19.4681 213.355 20.3003 212.957 21.0568C212.567 21.7957 212.173 22.426 211.785 22.9304C211.407 23.4211 211.052 23.7866 210.729 24.0172C210.49 24.1885 210.358 24.2069 210.312 24.2069C210.291 24.2069 210.274 24.2034 210.254 24.1948C210.21 24.1762 210.061 24.0796 209.983 23.6287C209.911 23.2162 209.904 22.6838 209.963 22.046C210.023 21.3974 210.16 20.6524 210.371 19.8316C210.582 19.0102 210.873 18.1415 211.236 17.2495C211.602 16.3533 211.987 15.5211 212.38 14.7754C212.768 14.0371 213.163 13.399 213.554 12.8792C213.93 12.3777 214.284 12.0064 214.607 11.7754C214.846 11.6048 214.978 11.5863 215.024 11.5863C215.046 11.5863 215.063 11.5898 215.08 11.597C215.126 11.6169 215.282 11.7172 215.378 12.174C215.463 12.5798 215.47 13.1135 215.397 13.7604Z" fill="url(#paint9_linear)"/>
<path d="M191.937 23.7578C192.082 23.185 192.247 22.5841 192.43 21.9655C192.471 21.8257 192.68 21.8438 192.695 21.9884C192.745 22.4631 192.808 22.9307 192.883 23.3808C192.966 23.8905 193.067 24.3956 193.182 24.8822C193.299 25.3696 193.431 25.8432 193.574 26.2903C193.72 26.7454 193.882 27.1862 194.055 27.6003C194.23 28.0196 194.421 28.4261 194.625 28.8083C194.827 29.1911 195.048 29.5613 195.281 29.909C195.514 30.2572 195.765 30.5893 196.026 30.8963C196.291 31.2079 196.57 31.4996 196.858 31.7632C197.097 31.9825 197.349 32.1887 197.605 32.3765C197.922 32.6089 198.255 32.8188 198.596 33C198.942 33.1847 199.303 33.3442 199.669 33.4736C199.858 33.5409 200.048 33.6002 200.233 33.6498C200.424 33.7021 200.62 33.7473 200.814 33.7844C201.206 33.8598 201.612 33.9067 202.018 33.9237C202.137 33.9286 202.255 33.9309 202.374 33.9309C202.667 33.9309 202.967 33.9159 203.267 33.8861C203.688 33.8439 204.119 33.7713 204.547 33.6705C204.975 33.5699 205.414 33.4381 205.852 33.2785C206.29 33.1178 206.735 32.9266 207.175 32.7099C207.403 32.5971 207.628 32.4791 207.843 32.3597C208.271 32.1221 208.704 31.8553 209.132 31.567C209.581 31.2641 210.041 30.9253 210.499 30.5598C210.688 30.4081 210.879 30.2507 211.069 30.089C211.456 29.7595 211.523 29.1981 211.224 28.7913C210.924 28.3845 210.355 28.2654 209.91 28.5154C209.772 28.5926 209.635 28.6661 209.498 28.7353C209.141 28.9169 208.779 29.0756 208.421 29.2071C208.071 29.3357 207.719 29.4405 207.375 29.5191C207.037 29.5962 206.699 29.6497 206.367 29.6779C206.041 29.7062 205.714 29.7105 205.4 29.6913C205.086 29.6718 204.774 29.6286 204.473 29.5628C204.171 29.497 203.871 29.4066 203.582 29.2941C203.288 29.1796 203 29.0409 202.725 28.8814C202.443 28.7172 202.167 28.5278 201.905 28.3181C201.636 28.1031 201.375 27.861 201.129 27.5989C200.875 27.329 200.632 27.0328 200.405 26.7185C200.173 26.3955 199.951 26.0442 199.747 25.6743C199.538 25.2971 199.342 24.8907 199.165 24.4657C199.076 24.254 198.989 24.0301 198.906 23.8003C198.776 23.441 198.655 23.0612 198.547 22.6716C198.407 22.168 198.284 21.6358 198.182 21.0895C198.078 20.5339 197.993 19.9474 197.929 19.3463C197.873 18.8222 197.832 18.2796 197.808 17.7291C197.804 17.6558 197.83 17.6195 197.903 17.5974C199.038 17.249 200.132 16.8166 201.161 16.3095C202.409 15.6939 203.514 14.9599 204.447 14.1282C205.388 13.2896 206.144 12.3339 206.694 11.2871C207.248 10.2309 207.529 9.06412 207.529 7.8197C207.529 6.6646 207.209 5.63284 206.578 4.75306C205.957 3.88822 205.135 3.15297 204.134 2.56753C203.145 1.98889 202.006 1.54881 200.749 1.2594C199.503 0.972819 198.224 0.827545 196.949 0.827545C194.709 0.827545 192.686 1.1887 190.936 1.90108C189.196 2.60921 187.722 3.47376 186.555 4.46998C185.386 5.46762 184.484 6.52348 183.873 7.60798C183.246 8.72093 182.942 9.64191 182.942 10.4236C182.942 11.319 183.157 12.0451 183.582 12.5812C184.004 13.1144 184.477 13.4784 184.987 13.6634C185.517 13.8559 186.033 13.8774 186.502 13.7291C187.036 13.5605 187.331 13.169 187.331 12.6267C187.331 11.8706 187.561 10.9615 188.013 9.92424C188.47 8.87802 189.121 7.86913 189.947 6.92565C190.767 5.98671 191.772 5.17783 192.934 4.52093C194.067 3.87943 195.356 3.5542 196.766 3.5542C198.09 3.5542 199.139 3.86044 199.883 4.46469C200.619 5.06195 200.992 6.02887 200.992 7.33832C200.992 8.35675 200.779 9.32367 200.359 10.2124C199.935 11.111 199.37 11.9378 198.682 12.6699C197.991 13.4038 197.202 14.0505 196.334 14.5917C195.806 14.9219 195.264 15.2109 194.716 15.4563C194.607 15.5051 194.491 15.4021 194.531 15.292C194.942 14.1716 195.378 13.0201 195.832 11.8559C196.394 10.4186 197.022 8.9421 197.704 7.46195C197.971 6.8818 197.629 6.20883 196.992 6.06299C195.936 5.82064 194.688 5.78076 193.25 5.94304C192.615 6.01469 192.065 6.40344 191.798 6.96809C190.984 8.69182 190.234 10.4399 189.565 12.1769C188.787 14.1981 188.108 16.097 187.549 17.8211C186.985 19.558 186.544 21.0963 186.24 22.3928C185.927 23.7222 185.775 24.6557 185.775 25.2463C185.775 25.9718 186.032 26.5881 186.538 27.0781C187.021 27.5449 187.573 27.8791 188.18 28.0715C188.795 28.266 189.393 28.3103 189.949 28.2036C190.594 28.0801 190.999 27.7014 191.119 27.1006C191.179 26.7622 191.284 26.2987 191.434 25.7225C191.586 25.1345 191.754 24.4793 191.937 23.7578Z" fill="url(#paint10_linear)"/>
<defs>
<linearGradient id="paint0_linear" x1="30.5" y1="58" x2="218.568" y2="-101.289" gradientUnits="userSpaceOnUse">
<stop stop-color="#FF7D45"/>
<stop offset="0.15625" stop-color="#FF0C37"/>
<stop offset="0.817708" stop-color="#FF2D52"/>
<stop offset="1" stop-color="#FF3E8F"/>
</linearGradient>
<linearGradient id="paint1_linear" x1="30.5" y1="58" x2="218.568" y2="-101.289" gradientUnits="userSpaceOnUse">
<stop stop-color="#FF7D45"/>
<stop offset="0.15625" stop-color="#FF0C37"/>
<stop offset="0.817708" stop-color="#FF2D52"/>
<stop offset="1" stop-color="#FF3E8F"/>
</linearGradient>
<linearGradient id="paint2_linear" x1="30.5" y1="58" x2="218.568" y2="-101.289" gradientUnits="userSpaceOnUse">
<stop stop-color="#FF7D45"/>
<stop offset="0.15625" stop-color="#FF0C37"/>
<stop offset="0.817708" stop-color="#FF2D52"/>
<stop offset="1" stop-color="#FF3E8F"/>
</linearGradient>
<linearGradient id="paint3_linear" x1="30.5" y1="58" x2="218.568" y2="-101.289" gradientUnits="userSpaceOnUse">
<stop stop-color="#FF7D45"/>
<stop offset="0.15625" stop-color="#FF0C37"/>
<stop offset="0.817708" stop-color="#FF2D52"/>
<stop offset="1" stop-color="#FF3E8F"/>
</linearGradient>
<linearGradient id="paint4_linear" x1="30.5" y1="58" x2="218.568" y2="-101.289" gradientUnits="userSpaceOnUse">
<stop stop-color="#FF7D45"/>
<stop offset="0.15625" stop-color="#FF0C37"/>
<stop offset="0.817708" stop-color="#FF2D52"/>
<stop offset="1" stop-color="#FF3E8F"/>
</linearGradient>
<linearGradient id="paint5_linear" x1="30.5" y1="58" x2="218.568" y2="-101.289" gradientUnits="userSpaceOnUse">
<stop stop-color="#FF7D45"/>
<stop offset="0.15625" stop-color="#FF0C37"/>
<stop offset="0.817708" stop-color="#FF2D52"/>
<stop offset="1" stop-color="#FF3E8F"/>
</linearGradient>
<linearGradient id="paint6_linear" x1="30.5" y1="58" x2="218.568" y2="-101.289" gradientUnits="userSpaceOnUse">
<stop stop-color="#FF7D45"/>
<stop offset="0.15625" stop-color="#FF0C37"/>
<stop offset="0.817708" stop-color="#FF2D52"/>
<stop offset="1" stop-color="#FF3E8F"/>
</linearGradient>
<linearGradient id="paint7_linear" x1="30.5" y1="58" x2="218.568" y2="-101.289" gradientUnits="userSpaceOnUse">
<stop stop-color="#FF7D45"/>
<stop offset="0.15625" stop-color="#FF0C37"/>
<stop offset="0.817708" stop-color="#FF2D52"/>
<stop offset="1" stop-color="#FF3E8F"/>
</linearGradient>
<linearGradient id="paint8_linear" x1="30.5" y1="58" x2="218.568" y2="-101.289" gradientUnits="userSpaceOnUse">
<stop stop-color="#FF7D45"/>
<stop offset="0.15625" stop-color="#FF0C37"/>
<stop offset="0.817708" stop-color="#FF2D52"/>
<stop offset="1" stop-color="#FF3E8F"/>
</linearGradient>
<linearGradient id="paint9_linear" x1="30.5" y1="58" x2="218.568" y2="-101.289" gradientUnits="userSpaceOnUse">
<stop stop-color="#FF7D45"/>
<stop offset="0.15625" stop-color="#FF0C37"/>
<stop offset="0.817708" stop-color="#FF2D52"/>
<stop offset="1" stop-color="#FF3E8F"/>
</linearGradient>
<linearGradient id="paint10_linear" x1="30.5" y1="58" x2="218.568" y2="-101.289" gradientUnits="userSpaceOnUse">
<stop stop-color="#FF7D45"/>
<stop offset="0.15625" stop-color="#FF0C37"/>
<stop offset="0.817708" stop-color="#FF2D52"/>
<stop offset="1" stop-color="#FF3E8F"/>
</linearGradient>
</defs>
</svg>
