<svg id="Capa_1" data-name="Capa 1" xmlns="http://www.w3.org/2000/svg" viewBox="0 0 700 700"><defs><style>.cls-1{fill:none;}.cls-2{fill:#ebc64e;}.cls-3{fill:#fff;}</style></defs><path class="cls-1" d="M507.63,119.65c8.66-15.52,8.29-31.09-1.08-46.26-5.92-9.59-14.25-14.25-25.44-14.25-30.78,0-81.45,37.36-101.31,117.17C433.68,178.51,488.49,154,507.63,119.65Z"/><path class="cls-1" d="M231.9,59.14c-11.2,0-19.52,4.66-25.44,14.25-9.38,15.17-9.74,30.74-1.08,46.26,19.13,34.31,74,58.85,127.83,56.66C313.35,96.5,262.68,59.14,231.9,59.14Z"/><rect class="cls-2" x="76.91" y="231.23" width="208.07" height="117.04"/><rect class="cls-2" x="421.52" y="231.23" width="208.07" height="117.04"/><rect class="cls-2" x="109.42" y="374.27" width="175.56" height="292.6"/><rect class="cls-2" x="421.52" y="374.27" width="175.56" height="292.6"/><path class="cls-3" d="M421.52,231.23v-6.51H361.87C348.32,256.62,331.28,324.4,374,414l-35.22,16.78c-43.15-90.6-32.92-163.21-18.43-206.06H285V679.88H421.52V231.23Z"/><path class="cls-2" d="M338.73,430.78,374,414c-42.67-89.6-25.63-157.38-12.08-189.28,1.7-4,3.34-7.47,4.81-10.32,6.53.64,13.11,1.06,19.73,1.06,66.21,0,130.07-31.59,155.29-76.81,15.61-28,14.92-58.44-2-85.76-13.06-21.13-33.88-32.77-58.64-32.77-53.45,0-98.88,47.24-124.61,105.63C330.77,67.36,285.35,20.12,231.9,20.12c-24.76,0-45.59,11.64-58.64,32.77-16.87,27.31-17.56,57.77-1.95,85.76,24.84,44.55,87.2,75.8,152.35,76.72-1.13,2.92-2.26,6.08-3.36,9.35C305.81,267.57,295.58,340.18,338.73,430.78ZM481.11,59.14c11.19,0,19.52,4.66,25.44,14.25,9.37,15.17,9.74,30.74,1.08,46.26C488.49,154,433.68,178.51,379.8,176.31,399.66,96.5,450.33,59.14,481.11,59.14ZM205.38,119.65c-8.66-15.52-8.3-31.09,1.08-46.26,5.92-9.59,14.24-14.25,25.44-14.25,30.78,0,81.45,37.36,101.31,117.17C279.38,178.5,224.51,154,205.38,119.65Z"/></svg>