<svg xmlns="http://www.w3.org/2000/svg" width="1050" viewBox="0 0 1050 1050" height="1050" version="1.0"><defs><clipPath id="a"><path d="M 39.859375 39.859375 L 1010.359375 39.859375 L 1010.359375 1010.359375 L 39.859375 1010.359375 Z M 39.859375 39.859375"/></clipPath><clipPath id="b"><path d="M 294 277.398438 L 764.632812 277.398438 L 764.632812 443.5 L 294 443.5 Z M 294 277.398438"/></clipPath><clipPath id="c"><path d="M 285 606 L 755 606 L 755 772.398438 L 285 772.398438 Z M 285 606"/></clipPath><clipPath id="d"><path d="M 598.449219 421 L 764.632812 421 L 764.632812 700 L 598.449219 700 Z M 598.449219 421"/></clipPath></defs><path fill="#FFF" d="M-105 -105H1155V1155H-105z"/><path fill="#FFF" d="M-105 -105H1155V1155H-105z"/><g clip-path="url(#a)"><path fill="#61008D" d="M 980.335938 654.492188 C 968.03125 696.382812 949.246094 736.121094 925.933594 772.722656 C 906.691406 802.507812 884.804688 830.503906 860.210938 855.964844 C 857.03125 859.445312 853.480469 862.558594 850.105469 865.839844 C 846.671875 869.066406 843.335938 872.394531 839.828125 875.539062 L 829.171875 884.8125 L 823.839844 889.453125 L 818.308594 893.84375 L 807.269531 902.667969 C 803.53125 905.527344 799.671875 908.226562 795.886719 911.027344 C 788.398438 916.761719 780.429688 921.800781 772.628906 927.101562 C 771.507812 927.859375 770.324219 928.652344 769.09375 929.480469 C 767.824219 930.242188 766.503906 931.035156 765.125 931.867188 C 762.371094 933.511719 759.410156 935.28125 756.257812 937.164062 C 750.027344 941.082031 742.65625 944.765625 734.699219 948.996094 C 732.695312 950.027344 730.6875 951.15625 728.570312 952.167969 C 726.441406 953.160156 724.273438 954.167969 722.0625 955.191406 C 717.636719 957.234375 713.054688 959.351562 708.324219 961.539062 C 698.628906 965.328125 688.519531 969.878906 677.492188 973.410156 C 633.960938 989.195312 579.632812 998.953125 525.109375 999.179688 C 470.589844 998.953125 416.257812 989.195312 372.726562 973.410156 C 361.699219 969.878906 351.589844 965.328125 341.890625 961.539062 C 337.164062 959.351562 332.582031 957.234375 328.160156 955.191406 C 325.945312 954.167969 323.773438 953.160156 321.648438 952.171875 C 319.53125 951.160156 317.527344 950.027344 315.523438 948.996094 C 307.566406 944.769531 300.191406 941.082031 293.964844 937.167969 C 290.808594 935.28125 287.847656 933.511719 285.097656 931.867188 C 283.722656 931.042969 282.398438 930.246094 281.128906 929.480469 C 279.898438 928.65625 278.714844 927.859375 277.589844 927.109375 C 247.972656 907.699219 220.144531 885.648438 194.851562 860.878906 C 168.171875 834.230469 144.851562 804.382812 124.285156 772.726562 C 100.96875 736.125 82.183594 696.382812 69.878906 654.492188 C 57.070312 612.742188 51.148438 568.929688 50.761719 525.109375 C 51.148438 481.289062 57.070312 437.472656 69.878906 395.722656 C 82.183594 353.835938 100.96875 314.097656 124.28125 277.492188 C 143.527344 247.707031 165.414062 219.714844 190.003906 194.25 C 193.183594 190.773438 196.734375 187.660156 200.109375 184.375 C 203.546875 181.152344 206.882812 177.820312 210.386719 174.675781 L 221.046875 165.402344 L 226.375 160.761719 L 231.90625 156.371094 L 242.945312 147.550781 C 246.6875 144.691406 250.546875 141.988281 254.332031 139.1875 C 261.820312 133.457031 269.785156 128.417969 277.585938 123.113281 C 278.710938 122.355469 279.890625 121.566406 281.121094 120.734375 C 282.394531 119.972656 283.714844 119.179688 285.09375 118.351562 C 287.84375 116.703125 290.804688 114.933594 293.957031 113.050781 C 300.191406 109.136719 307.5625 105.453125 315.519531 101.21875 C 317.519531 100.1875 319.527344 99.058594 321.648438 98.046875 C 323.773438 97.058594 325.941406 96.050781 328.152344 95.023438 C 332.578125 92.980469 337.164062 90.863281 341.890625 88.675781 C 351.585938 84.886719 361.699219 80.335938 372.722656 76.804688 C 416.257812 61.019531 470.585938 51.261719 525.109375 51.035156 C 579.628906 51.261719 633.960938 61.019531 677.488281 76.804688 C 688.519531 80.335938 698.625 84.886719 708.324219 88.675781 C 713.054688 90.863281 717.632812 92.980469 722.058594 95.023438 C 724.269531 96.050781 726.441406 97.058594 728.570312 98.042969 C 730.683594 99.054688 732.691406 100.1875 734.695312 101.21875 C 742.648438 105.449219 750.027344 109.136719 756.253906 113.046875 C 759.40625 114.933594 762.367188 116.703125 765.121094 118.351562 C 766.492188 119.175781 767.816406 119.96875 769.089844 120.734375 C 770.320312 121.5625 771.503906 122.355469 772.625 123.109375 C 802.246094 142.519531 830.070312 164.570312 855.363281 189.335938 C 882.042969 215.984375 905.363281 245.835938 925.929688 277.488281 C 949.246094 314.089844 968.03125 353.835938 980.335938 395.722656 C 993.148438 437.472656 999.070312 481.289062 999.449219 525.109375 C 999.070312 568.929688 993.148438 612.742188 980.335938 654.492188 Z M 1010.355469 524.785156 L 1010.34375 524.746094 C 1009.949219 480.003906 1003.929688 435.234375 990.894531 392.546875 C 978.359375 349.726562 959.15625 309.082031 935.21875 271.753906 L 923.714844 254.457031 C 923.714844 254.457031 920.386719 249.804688 915.398438 242.828125 C 910.597656 235.707031 903.246094 226.933594 896.226562 217.910156 C 888.664062 209.34375 881.410156 200.5 875.308594 194.46875 C 869.382812 188.277344 865.429688 184.15625 865.429688 184.15625 C 865.429688 184.15625 864.429688 183.136719 862.628906 181.40625 C 860.832031 179.671875 858.265625 177.1875 855.183594 174.210938 C 849.171875 168.089844 840.449219 160.710938 831.890625 153.144531 C 827.496094 149.496094 822.980469 145.996094 818.804688 142.640625 C 816.707031 140.972656 814.683594 139.359375 812.761719 137.832031 C 810.773438 136.394531 808.890625 135.039062 807.152344 133.785156 C 800.203125 128.769531 795.566406 125.429688 795.566406 125.429688 C 795.566406 125.429688 794.558594 124.609375 792.929688 123.550781 C 791.308594 122.472656 789.15625 121.03125 787.003906 119.585938 C 782.691406 116.699219 778.378906 113.8125 778.378906 113.8125 C 777.230469 113.039062 776.023438 112.222656 774.765625 111.375 C 773.46875 110.585938 772.117188 109.769531 770.710938 108.921875 C 767.898438 107.226562 764.871094 105.410156 761.648438 103.476562 C 755.28125 99.460938 747.742188 95.671875 739.605469 91.335938 C 737.558594 90.273438 735.5 89.121094 733.335938 88.078125 C 731.160156 87.0625 728.941406 86.027344 726.683594 84.976562 C 722.15625 82.878906 717.464844 80.707031 712.625 78.464844 C 702.707031 74.566406 692.359375 69.917969 681.074219 66.285156 C 636.523438 50.101562 580.894531 40.078125 525.109375 39.859375 C 469.324219 40.078125 413.691406 50.101562 369.136719 66.289062 C 357.859375 69.917969 347.507812 74.570312 337.585938 78.46875 C 332.746094 80.707031 328.058594 82.878906 323.535156 84.980469 C 321.273438 86.03125 319.050781 87.066406 316.875 88.078125 C 314.710938 89.121094 312.65625 90.273438 310.609375 91.335938 C 302.46875 95.671875 294.929688 99.460938 288.5625 103.476562 C 285.34375 105.410156 282.316406 107.230469 279.5 108.921875 C 278.097656 109.769531 276.742188 110.589844 275.449219 111.375 C 274.1875 112.226562 272.984375 113.039062 271.832031 113.8125 C 271.832031 113.8125 267.523438 116.699219 263.210938 119.585938 C 261.058594 121.03125 258.902344 122.472656 257.289062 123.554688 C 255.65625 124.609375 254.648438 125.429688 254.648438 125.429688 C 254.648438 125.429688 250.015625 128.769531 243.066406 133.785156 C 241.328125 135.039062 239.445312 136.394531 237.453125 137.832031 C 235.53125 139.359375 233.507812 140.972656 231.410156 142.640625 C 227.238281 145.996094 222.71875 149.496094 218.324219 153.144531 C 209.765625 160.710938 201.042969 168.089844 195.03125 174.210938 C 191.949219 177.1875 189.386719 179.671875 187.585938 181.40625 C 185.785156 183.136719 184.785156 184.15625 184.785156 184.15625 C 184.785156 184.15625 180.835938 188.277344 174.90625 194.46875 C 168.804688 200.5 161.554688 209.34375 153.992188 217.910156 C 146.96875 226.933594 139.617188 235.710938 134.816406 242.828125 C 129.824219 249.808594 126.5 254.460938 126.5 254.460938 L 114.996094 271.753906 C 91.058594 309.082031 71.859375 349.730469 59.320312 392.546875 C 46.285156 435.238281 40.269531 480.007812 39.871094 524.75 L 39.863281 524.785156 L 39.859375 525.109375 L 39.863281 525.429688 L 39.871094 525.46875 C 40.269531 570.210938 46.285156 614.980469 59.320312 657.667969 C 71.859375 700.488281 91.058594 741.132812 114.996094 778.464844 L 126.503906 795.753906 C 126.503906 795.753906 129.832031 800.410156 134.816406 807.386719 C 139.621094 814.511719 146.96875 823.28125 153.992188 832.304688 C 161.554688 840.871094 168.804688 849.71875 174.90625 855.746094 C 180.835938 861.933594 184.785156 866.058594 184.785156 866.058594 C 184.785156 866.058594 185.785156 867.078125 187.585938 868.8125 C 189.386719 870.546875 191.949219 873.03125 195.03125 876.003906 C 201.042969 882.128906 209.765625 889.503906 218.324219 897.074219 C 222.71875 900.722656 227.238281 904.21875 231.410156 907.578125 C 233.507812 909.246094 235.53125 910.855469 237.453125 912.386719 C 239.445312 913.820312 241.328125 915.175781 243.066406 916.429688 C 250.015625 921.449219 254.648438 924.789062 254.648438 924.789062 C 254.648438 924.789062 255.65625 925.609375 257.289062 926.660156 C 258.90625 927.746094 261.0625 929.1875 263.210938 930.632812 C 267.523438 933.515625 271.835938 936.402344 271.835938 936.402344 C 272.988281 937.179688 274.191406 937.996094 275.449219 938.839844 C 276.746094 939.632812 278.097656 940.449219 279.503906 941.292969 C 282.316406 942.988281 285.347656 944.804688 288.566406 946.742188 C 294.9375 950.753906 302.472656 954.546875 310.613281 958.878906 C 312.660156 959.941406 314.714844 961.097656 316.878906 962.136719 C 319.054688 963.152344 321.277344 964.1875 323.535156 965.242188 C 328.058594 967.335938 332.753906 969.507812 337.589844 971.753906 C 347.511719 975.648438 357.859375 980.296875 369.140625 983.933594 C 413.691406 1000.113281 469.324219 1010.136719 525.109375 1010.359375 C 580.894531 1010.136719 636.523438 1000.113281 681.078125 983.929688 C 692.359375 980.296875 702.710938 975.644531 712.628906 971.746094 C 717.46875 969.507812 722.15625 967.335938 726.683594 965.234375 C 728.945312 964.183594 731.164062 963.148438 733.34375 962.136719 C 735.503906 961.097656 737.5625 959.941406 739.609375 958.878906 C 747.746094 954.546875 755.285156 950.753906 761.652344 946.742188 C 764.875 944.804688 767.898438 942.984375 770.71875 941.292969 C 772.117188 940.449219 773.472656 939.625 774.765625 938.839844 C 776.027344 937.988281 777.234375 937.179688 778.382812 936.402344 C 778.382812 936.402344 782.691406 933.515625 787.003906 930.632812 C 789.160156 929.1875 791.3125 927.746094 792.929688 926.660156 C 794.558594 925.609375 795.566406 924.789062 795.566406 924.789062 C 795.566406 924.789062 800.203125 921.449219 807.152344 916.429688 C 808.890625 915.175781 810.773438 913.820312 812.761719 912.386719 C 814.683594 910.855469 816.707031 909.246094 818.804688 907.578125 C 822.980469 904.21875 827.496094 900.722656 831.890625 897.074219 C 840.449219 889.503906 849.171875 882.128906 855.183594 876.003906 C 858.265625 873.03125 860.832031 870.546875 862.628906 868.8125 C 864.429688 867.078125 865.429688 866.058594 865.429688 866.058594 C 865.429688 866.058594 869.382812 861.933594 875.308594 855.746094 C 881.410156 849.71875 888.664062 840.871094 896.226562 832.304688 C 903.246094 823.28125 910.601562 814.503906 915.398438 807.386719 C 920.390625 800.40625 923.714844 795.753906 923.714844 795.753906 L 935.21875 778.464844 C 959.15625 741.132812 978.359375 700.484375 990.894531 657.667969 C 1003.929688 614.976562 1009.949219 570.207031 1010.34375 525.464844 L 1010.355469 525.429688 L 1010.359375 525.109375 L 1010.355469 524.785156"/></g><g clip-path="url(#b)"><path fill="#61008D" d="M 575.335938 331.433594 L 608.914062 310.964844 C 619.660156 304.410156 631.398438 299.875 643.78125 297.488281 L 668.996094 292.636719 C 670.882812 292.25 672.261719 293.105469 672.914062 293.636719 C 673.550781 294.164062 674.628906 295.34375 674.628906 297.28125 C 674.628906 299.128906 673.542969 300.816406 671.863281 301.585938 L 638.726562 316.824219 C 635.496094 318.304688 633.734375 321.847656 634.492188 325.328125 C 635.253906 328.796875 638.324219 331.277344 641.890625 331.277344 L 731.019531 331.277344 C 734.300781 331.277344 736.96875 333.945312 736.96875 337.230469 C 736.96875 340.511719 734.300781 343.179688 731.019531 343.179688 L 665.921875 343.179688 C 661.742188 343.179688 658.351562 346.570312 658.351562 350.753906 C 658.351562 354.9375 661.742188 358.328125 665.921875 358.328125 L 742.410156 358.328125 C 746.3125 358.328125 749.484375 361.507812 749.484375 365.402344 C 749.484375 369.304688 746.3125 372.480469 742.410156 372.480469 L 667.925781 372.480469 C 663.746094 372.480469 660.351562 375.871094 660.351562 380.050781 C 660.351562 384.238281 663.746094 387.625 667.925781 387.625 L 733.644531 387.625 C 736.996094 387.625 739.722656 390.355469 739.722656 393.703125 C 739.722656 397.050781 736.996094 399.777344 733.644531 399.777344 L 659.914062 399.777344 C 655.734375 399.777344 652.347656 403.167969 652.347656 407.355469 C 652.347656 411.535156 655.734375 414.925781 659.914062 414.925781 L 714.371094 414.925781 C 716.886719 414.925781 718.941406 416.980469 718.941406 419.5 C 718.941406 422.019531 716.886719 424.074219 714.371094 424.074219 L 655.828125 424.074219 C 630.152344 424.074219 604.558594 420.644531 579.757812 413.878906 L 567.105469 410.429688 C 561.921875 409.015625 556.582031 408.277344 551.238281 408.234375 L 540.988281 408.144531 L 540.988281 340.542969 L 542.886719 340.542969 C 554.339844 340.542969 565.558594 337.386719 575.335938 331.433594 Z M 302.382812 320.164062 L 514.816406 320.164062 C 520.894531 320.164062 525.847656 325.117188 525.847656 331.199219 L 525.847656 417.253906 C 525.847656 423.332031 520.894531 428.289062 514.816406 428.289062 L 477.582031 428.289062 C 473.398438 428.289062 470.007812 431.679688 470.007812 435.859375 C 470.007812 440.039062 473.398438 443.433594 477.582031 443.433594 L 514.816406 443.433594 C 527.167969 443.433594 537.542969 434.824219 540.273438 423.285156 L 551.113281 423.382812 C 555.15625 423.410156 559.191406 423.972656 563.117188 425.042969 L 575.773438 428.496094 C 601.875 435.609375 628.800781 439.21875 655.828125 439.21875 L 714.371094 439.21875 C 725.242188 439.21875 734.082031 430.375 734.082031 419.5 C 734.082031 417.925781 733.875 416.394531 733.527344 414.925781 L 733.644531 414.925781 C 745.34375 414.925781 754.859375 405.40625 754.859375 393.703125 C 754.859375 390.582031 754.167969 387.632812 752.957031 384.957031 C 759.898438 381.195312 764.628906 373.84375 764.628906 365.402344 C 764.628906 356.074219 758.847656 348.085938 750.683594 344.796875 C 751.589844 342.445312 752.109375 339.898438 752.109375 337.230469 C 752.109375 325.597656 742.648438 316.132812 731.019531 316.132812 L 676.492188 316.132812 L 678.191406 315.347656 C 685.222656 312.113281 689.769531 305.019531 689.769531 297.28125 C 689.769531 291.332031 687.136719 285.746094 682.550781 281.953125 C 677.960938 278.164062 671.992188 276.636719 666.136719 277.761719 L 640.917969 282.609375 C 626.746094 285.34375 613.328125 290.535156 601.035156 298.03125 L 567.457031 318.496094 C 560.050781 323.011719 551.554688 325.394531 542.886719 325.394531 L 540.332031 325.394531 C 537.683594 313.742188 527.25 305.019531 514.816406 305.019531 L 302.382812 305.019531 C 298.203125 305.019531 294.808594 308.410156 294.808594 312.589844 C 294.808594 316.777344 298.203125 320.164062 302.382812 320.164062"/></g><g clip-path="url(#c)"><path fill="#61008D" d="M 498.4375 737.195312 C 493.089844 737.242188 487.753906 737.980469 482.5625 739.390625 L 469.910156 742.84375 C 445.128906 749.609375 419.539062 753.03125 393.84375 753.03125 L 335.304688 753.03125 C 332.78125 753.03125 330.734375 750.988281 330.734375 748.464844 C 330.734375 745.941406 332.78125 743.894531 335.304688 743.894531 L 389.753906 743.894531 C 393.9375 743.894531 397.328125 740.503906 397.328125 736.316406 C 397.328125 732.136719 393.9375 728.746094 389.753906 728.746094 L 316.03125 728.746094 C 312.679688 728.746094 309.949219 726.019531 309.949219 722.667969 C 309.949219 719.320312 312.679688 716.59375 316.03125 716.59375 L 381.746094 716.59375 C 385.929688 716.59375 389.320312 713.207031 389.320312 709.019531 C 389.320312 704.835938 385.929688 701.445312 381.746094 701.445312 L 307.261719 701.445312 C 303.363281 701.445312 300.1875 698.269531 300.1875 694.367188 C 300.1875 690.464844 303.363281 687.285156 307.261719 687.285156 L 383.75 687.285156 C 387.929688 687.285156 391.316406 683.894531 391.316406 679.714844 C 391.316406 675.53125 387.929688 672.140625 383.75 672.140625 L 318.652344 672.140625 C 315.371094 672.140625 312.703125 669.472656 312.703125 666.191406 C 312.703125 662.910156 315.371094 660.242188 318.652344 660.242188 L 407.78125 660.242188 C 411.339844 660.242188 414.417969 657.761719 415.179688 654.289062 C 415.941406 650.808594 414.179688 647.273438 410.949219 645.789062 L 377.796875 630.546875 C 376.128906 629.777344 375.046875 628.09375 375.046875 626.246094 C 375.046875 624.304688 376.125 623.128906 376.761719 622.601562 C 377.40625 622.0625 378.785156 621.21875 380.667969 621.601562 L 405.890625 626.453125 C 418.265625 628.832031 429.996094 633.371094 440.753906 639.929688 L 474.339844 660.398438 C 484.113281 666.355469 495.335938 669.511719 506.785156 669.511719 L 508.683594 669.511719 L 508.683594 737.105469 Z M 747.289062 757.253906 L 534.859375 757.253906 C 528.78125 757.253906 523.828125 752.300781 523.828125 746.210938 L 523.828125 660.164062 C 523.828125 654.082031 528.78125 649.125 534.859375 649.125 L 598.460938 649.125 C 602.640625 649.125 606.03125 645.734375 606.03125 641.550781 C 606.03125 637.371094 602.640625 633.980469 598.460938 633.980469 L 534.859375 633.980469 C 522.421875 633.980469 511.988281 642.707031 509.34375 654.359375 L 506.785156 654.359375 C 498.117188 654.359375 489.621094 651.976562 482.214844 647.464844 L 448.632812 626.996094 C 436.332031 619.484375 422.910156 614.304688 408.753906 611.578125 L 383.535156 606.730469 C 377.671875 605.589844 371.703125 607.128906 367.121094 610.921875 C 362.539062 614.707031 359.902344 620.292969 359.902344 626.246094 C 359.902344 633.992188 364.445312 641.078125 371.472656 644.308594 L 373.191406 645.09375 L 318.652344 645.09375 C 307.027344 645.09375 297.5625 654.5625 297.5625 666.191406 C 297.5625 668.863281 298.078125 671.40625 298.984375 673.753906 C 290.828125 677.046875 285.046875 685.039062 285.046875 694.367188 C 285.046875 702.808594 289.773438 710.164062 296.714844 713.925781 C 295.503906 716.59375 294.808594 719.550781 294.808594 722.667969 C 294.808594 734.371094 304.328125 743.894531 316.03125 743.894531 L 316.144531 743.894531 C 315.796875 745.363281 315.589844 746.886719 315.589844 748.464844 C 315.589844 759.335938 324.429688 768.179688 335.304688 768.179688 L 393.84375 768.179688 C 420.878906 768.179688 447.816406 764.570312 473.894531 757.457031 L 486.546875 754.003906 C 490.472656 752.9375 494.519531 752.375 498.566406 752.339844 L 509.394531 752.246094 C 512.125 763.789062 522.503906 772.398438 534.859375 772.398438 L 747.289062 772.398438 C 751.46875 772.398438 754.859375 769.007812 754.859375 764.824219 C 754.859375 760.644531 751.46875 757.253906 747.289062 757.253906"/></g><g clip-path="url(#d)"><path fill="#61008D" d="M 745.273438 591.011719 L 745.273438 649.570312 C 745.273438 652.089844 743.222656 654.140625 740.703125 654.140625 C 738.179688 654.140625 736.125 652.089844 736.125 649.570312 L 736.125 595.101562 C 736.125 590.917969 732.742188 587.527344 728.558594 587.527344 C 724.378906 587.527344 720.988281 590.917969 720.988281 595.101562 L 720.988281 668.851562 C 720.988281 672.199219 718.261719 674.929688 714.910156 674.929688 C 711.566406 674.929688 708.839844 672.199219 708.839844 668.851562 L 708.839844 603.109375 C 708.839844 598.929688 705.449219 595.539062 701.269531 595.539062 C 697.085938 595.539062 693.695312 598.929688 693.695312 603.109375 L 693.695312 677.617188 C 693.695312 681.519531 690.519531 684.695312 686.621094 684.695312 C 682.722656 684.695312 679.546875 681.519531 679.546875 677.617188 L 679.546875 601.113281 C 679.546875 596.925781 676.15625 593.539062 671.976562 593.539062 C 667.792969 593.539062 664.402344 596.925781 664.402344 601.113281 L 664.402344 666.222656 C 664.402344 669.511719 661.742188 672.179688 658.453125 672.179688 C 655.171875 672.179688 652.503906 669.511719 652.503906 666.222656 L 652.503906 577.066406 C 652.503906 573.503906 650.027344 570.429688 646.554688 569.671875 C 643.027344 568.90625 639.542969 570.671875 638.054688 573.902344 L 622.824219 607.050781 C 622.058594 608.730469 620.367188 609.8125 618.523438 609.8125 C 616.585938 609.8125 615.398438 608.738281 614.867188 608.09375 C 614.34375 607.453125 613.511719 606.09375 613.875 604.1875 L 618.730469 578.957031 C 621.109375 566.585938 625.640625 554.847656 632.199219 544.082031 L 652.660156 510.492188 C 658.617188 500.710938 661.765625 489.488281 661.765625 478.03125 L 661.765625 476.132812 L 729.351562 476.132812 L 729.4375 486.386719 C 729.484375 491.761719 730.230469 497.101562 731.632812 502.253906 L 735.082031 514.925781 C 741.84375 539.726562 745.273438 565.320312 745.273438 591.011719 Z M 757.054688 421.480469 C 752.875 421.480469 749.484375 424.871094 749.484375 429.058594 L 749.484375 449.953125 C 749.484375 456.03125 744.53125 460.988281 738.453125 460.988281 L 652.429688 460.988281 C 648.890625 460.988281 645.648438 459.351562 643.539062 456.496094 C 641.058594 453.128906 636.316406 452.433594 632.953125 454.910156 C 629.59375 457.394531 628.875 462.144531 631.367188 465.503906 C 635.117188 470.574219 640.582031 474.085938 646.625 475.46875 L 646.625 478.03125 C 646.625 486.707031 644.242188 495.203125 639.730469 502.609375 L 619.269531 536.199219 C 611.769531 548.519531 606.582031 561.941406 603.863281 576.097656 L 599.007812 601.324219 C 597.882812 607.171875 599.40625 613.152344 603.199219 617.738281 C 606.984375 622.328125 612.574219 624.960938 618.523438 624.960938 C 626.257812 624.960938 633.347656 620.417969 636.585938 613.378906 L 637.363281 611.679688 L 637.363281 666.222656 C 637.363281 677.855469 646.828125 687.320312 658.453125 687.320312 C 661.121094 687.320312 663.667969 686.804688 666.019531 685.894531 C 669.308594 694.058594 677.300781 699.84375 686.621094 699.84375 C 695.058594 699.84375 702.410156 695.109375 706.167969 688.167969 C 708.839844 689.378906 711.792969 690.074219 714.910156 690.074219 C 726.613281 690.074219 736.125 680.554688 736.125 668.851562 L 736.125 668.734375 C 737.601562 669.082031 739.125 669.292969 740.703125 669.292969 C 751.574219 669.292969 760.414062 660.445312 760.414062 649.570312 L 760.414062 591.011719 C 760.414062 563.980469 756.808594 537.042969 749.691406 510.941406 L 746.242188 498.277344 C 745.171875 494.371094 744.617188 490.320312 744.582031 486.257812 L 744.492188 475.425781 C 756.019531 472.691406 764.628906 462.3125 764.628906 449.953125 L 764.628906 429.058594 C 764.628906 424.871094 761.238281 421.480469 757.054688 421.480469"/></g><path fill="#61008D" d="M 304.398438 447.050781 L 304.398438 388.503906 C 304.398438 385.980469 306.449219 383.929688 308.972656 383.929688 C 311.488281 383.929688 313.542969 385.980469 313.542969 388.503906 L 313.542969 442.96875 C 313.542969 447.15625 316.929688 450.546875 321.117188 450.546875 C 325.292969 450.546875 328.683594 447.15625 328.683594 442.96875 L 328.683594 369.214844 C 328.683594 365.867188 331.410156 363.144531 334.757812 363.144531 C 338.109375 363.144531 340.835938 365.867188 340.835938 369.214844 L 340.835938 434.960938 C 340.835938 439.140625 344.226562 442.53125 348.40625 442.53125 C 352.585938 442.53125 355.976562 439.140625 355.976562 434.960938 L 355.976562 360.453125 C 355.976562 356.550781 359.152344 353.375 363.046875 353.375 C 366.949219 353.375 370.125 356.550781 370.125 360.453125 L 370.125 436.960938 C 370.125 441.144531 373.511719 444.535156 377.695312 444.535156 C 381.875 444.535156 385.265625 441.144531 385.265625 436.960938 L 385.265625 371.847656 C 385.265625 368.566406 387.933594 365.894531 391.21875 365.894531 C 394.5 365.894531 397.167969 368.566406 397.167969 371.847656 L 397.167969 461.003906 C 397.167969 464.566406 399.648438 467.644531 403.117188 468.398438 C 406.632812 469.160156 410.132812 467.394531 411.617188 464.164062 L 426.847656 431.019531 C 427.613281 429.339844 429.308594 428.257812 431.144531 428.257812 C 433.085938 428.257812 434.269531 429.332031 434.796875 429.976562 C 435.328125 430.617188 436.164062 431.980469 435.796875 433.882812 L 430.941406 459.109375 C 428.566406 471.488281 424.03125 483.222656 417.472656 493.984375 L 397.007812 527.574219 C 391.050781 537.359375 387.902344 548.582031 387.902344 560.03125 L 387.902344 561.9375 L 320.320312 561.9375 L 320.234375 551.6875 C 320.1875 546.308594 319.445312 540.96875 318.039062 535.816406 L 314.589844 523.144531 C 307.828125 498.371094 304.398438 472.769531 304.398438 447.050781 Z M 292.617188 629.960938 C 296.796875 629.960938 300.1875 626.570312 300.1875 622.390625 L 300.1875 588.117188 C 300.1875 582.035156 305.140625 577.085938 311.21875 577.085938 L 397.246094 577.085938 C 403.324219 577.085938 408.277344 582.035156 408.277344 588.117188 L 408.277344 595.101562 C 408.277344 599.28125 411.664062 602.671875 415.84375 602.671875 C 420.027344 602.671875 423.417969 599.28125 423.417969 595.101562 L 423.417969 588.117188 C 423.417969 575.675781 414.695312 565.242188 403.042969 562.59375 L 403.042969 560.03125 C 403.042969 551.359375 405.429688 542.859375 409.9375 535.457031 L 430.402344 501.867188 C 437.902344 489.554688 443.09375 476.132812 445.8125 461.976562 L 450.664062 436.75 C 451.789062 430.902344 450.265625 424.917969 446.472656 420.335938 C 442.6875 415.746094 437.101562 413.105469 431.144531 413.105469 C 423.417969 413.105469 416.332031 417.652344 413.09375 424.6875 L 412.308594 426.382812 L 412.308594 371.847656 C 412.308594 360.210938 402.847656 350.746094 391.21875 350.746094 C 388.546875 350.746094 386.003906 351.265625 383.648438 352.175781 C 380.363281 344.011719 372.375 338.230469 363.046875 338.230469 C 354.617188 338.230469 347.261719 342.957031 343.503906 349.90625 C 340.832031 348.691406 337.875 347.996094 334.757812 347.996094 C 323.0625 347.996094 313.542969 357.519531 313.542969 369.214844 L 313.542969 369.339844 C 312.074219 368.988281 310.546875 368.78125 308.972656 368.78125 C 298.101562 368.78125 289.253906 377.628906 289.253906 388.503906 L 289.253906 447.050781 C 289.253906 474.109375 292.863281 501.054688 299.980469 527.128906 L 303.425781 539.796875 C 304.5 543.703125 305.054688 547.75 305.089844 551.816406 L 305.183594 562.648438 C 293.652344 565.378906 285.046875 575.761719 285.046875 588.117188 L 285.046875 622.390625 C 285.046875 626.570312 288.433594 629.960938 292.617188 629.960938"/></svg>