<svg xmlns="http://www.w3.org/2000/svg" width="1050" viewBox="0 0 1050 1050" height="1050" version="1.0"><defs><clipPath id="a"><path d="M 39.859375 39.859375 L 1010.359375 39.859375 L 1010.359375 1010.359375 L 39.859375 1010.359375 Z M 39.859375 39.859375"/></clipPath><clipPath id="b"><path d="M 386 264.328125 L 607 264.328125 L 607 485 L 386 485 Z M 386 264.328125"/></clipPath><clipPath id="c"><path d="M 264.328125 468 L 785.578125 468 L 785.578125 785.578125 L 264.328125 785.578125 Z M 264.328125 468"/></clipPath></defs><path fill="#FFF" d="M-105 -105H1155V1155H-105z"/><path fill="#FFF" d="M-105 -105H1155V1155H-105z"/><path fill="#FFF" d="M-105 -105H1155V1155H-105z"/><g clip-path="url(#a)"><path fill="#61008D" d="M 980.335938 654.492188 C 968.03125 696.382812 949.246094 736.121094 925.933594 772.722656 C 906.691406 802.507812 884.804688 830.503906 860.210938 855.964844 C 857.03125 859.445312 853.480469 862.558594 850.105469 865.839844 C 846.671875 869.066406 843.335938 872.394531 839.828125 875.539062 L 829.171875 884.8125 L 823.839844 889.453125 L 818.308594 893.84375 L 807.269531 902.667969 C 803.53125 905.527344 799.671875 908.226562 795.886719 911.027344 C 788.398438 916.761719 780.429688 921.800781 772.628906 927.101562 C 771.507812 927.859375 770.324219 928.652344 769.09375 929.480469 C 767.824219 930.242188 766.503906 931.035156 765.125 931.867188 C 762.371094 933.511719 759.410156 935.28125 756.257812 937.164062 C 750.027344 941.082031 742.65625 944.765625 734.699219 948.996094 C 732.695312 950.027344 730.6875 951.15625 728.570312 952.167969 C 726.441406 953.160156 724.273438 954.167969 722.0625 955.191406 C 717.636719 957.234375 713.054688 959.351562 708.324219 961.539062 C 698.628906 965.328125 688.519531 969.878906 677.492188 973.410156 C 633.960938 989.195312 579.632812 998.953125 525.109375 999.179688 C 470.589844 998.953125 416.257812 989.195312 372.726562 973.410156 C 361.699219 969.878906 351.589844 965.328125 341.890625 961.539062 C 337.164062 959.351562 332.582031 957.234375 328.160156 955.191406 C 325.945312 954.167969 323.773438 953.160156 321.648438 952.171875 C 319.53125 951.160156 317.527344 950.027344 315.523438 948.996094 C 307.566406 944.769531 300.191406 941.082031 293.964844 937.167969 C 290.808594 935.28125 287.847656 933.511719 285.097656 931.867188 C 283.722656 931.042969 282.398438 930.246094 281.128906 929.480469 C 279.898438 928.65625 278.714844 927.859375 277.589844 927.109375 C 247.972656 907.699219 220.144531 885.648438 194.851562 860.878906 C 168.171875 834.230469 144.851562 804.382812 124.285156 772.726562 C 100.96875 736.125 82.183594 696.382812 69.878906 654.492188 C 57.070312 612.742188 51.148438 568.929688 50.761719 525.109375 C 51.148438 481.289062 57.070312 437.472656 69.878906 395.722656 C 82.183594 353.835938 100.96875 314.097656 124.28125 277.492188 C 143.527344 247.707031 165.414062 219.714844 190.003906 194.25 C 193.183594 190.773438 196.734375 187.660156 200.109375 184.375 C 203.546875 181.152344 206.882812 177.820312 210.386719 174.675781 L 221.046875 165.402344 L 226.375 160.761719 L 231.90625 156.371094 L 242.945312 147.550781 C 246.6875 144.691406 250.546875 141.988281 254.332031 139.1875 C 261.820312 133.457031 269.785156 128.417969 277.585938 123.113281 C 278.710938 122.355469 279.890625 121.566406 281.121094 120.734375 C 282.394531 119.972656 283.714844 119.179688 285.09375 118.351562 C 287.84375 116.703125 290.804688 114.933594 293.957031 113.050781 C 300.191406 109.136719 307.5625 105.453125 315.519531 101.21875 C 317.519531 100.1875 319.527344 99.0625 321.648438 98.046875 C 323.773438 97.058594 325.941406 96.050781 328.152344 95.023438 C 332.578125 92.980469 337.164062 90.863281 341.890625 88.675781 C 351.585938 84.886719 361.699219 80.335938 372.722656 76.804688 C 416.257812 61.019531 470.585938 51.261719 525.109375 51.035156 C 579.628906 51.261719 633.960938 61.019531 677.488281 76.804688 C 688.519531 80.335938 698.625 84.886719 708.324219 88.675781 C 713.054688 90.863281 717.632812 92.980469 722.058594 95.023438 C 724.269531 96.050781 726.441406 97.058594 728.570312 98.042969 C 730.683594 99.054688 732.691406 100.1875 734.695312 101.21875 C 742.648438 105.449219 750.027344 109.136719 756.253906 113.046875 C 759.40625 114.933594 762.367188 116.703125 765.121094 118.351562 C 766.492188 119.175781 767.816406 119.96875 769.089844 120.734375 C 770.320312 121.5625 771.503906 122.355469 772.625 123.109375 C 802.246094 142.519531 830.070312 164.570312 855.363281 189.335938 C 882.042969 215.984375 905.363281 245.835938 925.929688 277.488281 C 949.246094 314.089844 968.03125 353.835938 980.335938 395.722656 C 993.148438 437.472656 999.070312 481.289062 999.449219 525.109375 C 999.070312 568.929688 993.148438 612.742188 980.335938 654.492188 Z M 1010.355469 524.789062 L 1010.34375 524.746094 C 1009.949219 480.003906 1003.929688 435.234375 990.894531 392.546875 C 978.359375 349.726562 959.15625 309.082031 935.21875 271.753906 L 923.714844 254.457031 C 923.714844 254.457031 920.386719 249.804688 915.398438 242.828125 C 910.597656 235.707031 903.246094 226.933594 896.226562 217.910156 C 888.664062 209.34375 881.410156 200.5 875.308594 194.46875 C 869.382812 188.277344 865.429688 184.15625 865.429688 184.15625 C 865.429688 184.15625 864.429688 183.136719 862.628906 181.40625 C 860.832031 179.671875 858.265625 177.1875 855.183594 174.210938 C 849.171875 168.089844 840.449219 160.710938 831.890625 153.144531 C 827.496094 149.496094 822.980469 145.996094 818.804688 142.640625 C 816.707031 140.972656 814.683594 139.363281 812.761719 137.832031 C 810.773438 136.394531 808.890625 135.039062 807.152344 133.785156 C 800.203125 128.769531 795.566406 125.429688 795.566406 125.429688 C 795.566406 125.429688 794.558594 124.609375 792.929688 123.550781 C 791.308594 122.472656 789.15625 121.03125 787.003906 119.585938 C 782.691406 116.699219 778.378906 113.8125 778.378906 113.8125 C 777.230469 113.039062 776.023438 112.222656 774.765625 111.375 C 773.46875 110.585938 772.117188 109.769531 770.710938 108.921875 C 767.898438 107.226562 764.871094 105.410156 761.648438 103.476562 C 755.28125 99.460938 747.742188 95.671875 739.605469 91.335938 C 737.558594 90.273438 735.5 89.121094 733.335938 88.078125 C 731.160156 87.0625 728.941406 86.027344 726.683594 84.976562 C 722.15625 82.878906 717.464844 80.707031 712.625 78.464844 C 702.707031 74.566406 692.359375 69.917969 681.074219 66.285156 C 636.523438 50.101562 580.894531 40.078125 525.109375 39.859375 C 469.324219 40.078125 413.691406 50.101562 369.136719 66.289062 C 357.859375 69.917969 347.507812 74.570312 337.585938 78.46875 C 332.746094 80.707031 328.058594 82.878906 323.535156 84.980469 C 321.273438 86.03125 319.050781 87.066406 316.875 88.078125 C 314.710938 89.121094 312.65625 90.273438 310.609375 91.335938 C 302.46875 95.671875 294.929688 99.460938 288.5625 103.476562 C 285.34375 105.410156 282.316406 107.230469 279.5 108.921875 C 278.097656 109.769531 276.742188 110.589844 275.449219 111.375 C 274.1875 112.226562 272.984375 113.039062 271.832031 113.8125 C 271.832031 113.8125 267.523438 116.699219 263.210938 119.585938 C 261.058594 121.03125 258.902344 122.472656 257.289062 123.554688 C 255.65625 124.609375 254.648438 125.429688 254.648438 125.429688 C 254.648438 125.429688 250.015625 128.769531 243.066406 133.785156 C 241.328125 135.039062 239.445312 136.394531 237.453125 137.832031 C 235.53125 139.363281 233.507812 140.972656 231.410156 142.640625 C 227.238281 145.996094 222.71875 149.496094 218.324219 153.144531 C 209.765625 160.710938 201.042969 168.089844 195.03125 174.210938 C 191.949219 177.1875 189.386719 179.671875 187.585938 181.40625 C 185.785156 183.136719 184.785156 184.15625 184.785156 184.15625 C 184.785156 184.15625 180.835938 188.277344 174.90625 194.46875 C 168.804688 200.5 161.554688 209.34375 153.992188 217.910156 C 146.96875 226.933594 139.617188 235.710938 134.816406 242.828125 C 129.824219 249.808594 126.5 254.460938 126.5 254.460938 L 114.996094 271.753906 C 91.058594 309.082031 71.859375 349.730469 59.320312 392.546875 C 46.285156 435.238281 40.269531 480.007812 39.871094 524.75 L 39.863281 524.789062 L 39.859375 525.109375 L 39.863281 525.429688 L 39.871094 525.46875 C 40.269531 570.210938 46.285156 614.980469 59.320312 657.667969 C 71.859375 700.488281 91.058594 741.132812 114.996094 778.464844 L 126.503906 795.753906 C 126.503906 795.753906 129.832031 800.410156 134.816406 807.386719 C 139.621094 814.511719 146.96875 823.28125 153.992188 832.304688 C 161.554688 840.875 168.804688 849.71875 174.90625 855.746094 C 180.835938 861.933594 184.785156 866.058594 184.785156 866.058594 C 184.785156 866.058594 185.785156 867.082031 187.585938 868.8125 C 189.386719 870.546875 191.949219 873.03125 195.03125 876.003906 C 201.042969 882.128906 209.765625 889.503906 218.324219 897.074219 C 222.71875 900.722656 227.238281 904.21875 231.410156 907.578125 C 233.507812 909.246094 235.53125 910.855469 237.453125 912.386719 C 239.445312 913.820312 241.328125 915.175781 243.066406 916.429688 C 250.015625 921.449219 254.648438 924.789062 254.648438 924.789062 C 254.648438 924.789062 255.65625 925.609375 257.289062 926.660156 C 258.90625 927.746094 261.0625 929.1875 263.210938 930.632812 C 267.523438 933.515625 271.835938 936.402344 271.835938 936.402344 C 272.988281 937.179688 274.191406 937.996094 275.449219 938.84375 C 276.746094 939.632812 278.097656 940.449219 279.503906 941.292969 C 282.316406 942.988281 285.347656 944.804688 288.566406 946.742188 C 294.9375 950.753906 302.472656 954.546875 310.613281 958.878906 C 312.660156 959.941406 314.714844 961.097656 316.878906 962.136719 C 319.054688 963.152344 321.277344 964.1875 323.535156 965.242188 C 328.058594 967.335938 332.753906 969.507812 337.589844 971.753906 C 347.511719 975.648438 357.859375 980.296875 369.140625 983.933594 C 413.691406 1000.113281 469.324219 1010.136719 525.109375 1010.359375 C 580.894531 1010.136719 636.523438 1000.113281 681.078125 983.929688 C 692.359375 980.296875 702.710938 975.644531 712.628906 971.746094 C 717.46875 969.507812 722.15625 967.335938 726.683594 965.234375 C 728.945312 964.183594 731.164062 963.148438 733.34375 962.136719 C 735.503906 961.097656 737.5625 959.941406 739.609375 958.878906 C 747.746094 954.546875 755.285156 950.753906 761.652344 946.742188 C 764.875 944.804688 767.898438 942.984375 770.71875 941.292969 C 772.117188 940.449219 773.472656 939.625 774.765625 938.84375 C 776.027344 937.988281 777.234375 937.179688 778.382812 936.402344 C 778.382812 936.402344 782.691406 933.515625 787.003906 930.632812 C 789.160156 929.1875 791.3125 927.746094 792.929688 926.660156 C 794.558594 925.609375 795.566406 924.789062 795.566406 924.789062 C 795.566406 924.789062 800.203125 921.449219 807.152344 916.429688 C 808.890625 915.175781 810.773438 913.820312 812.761719 912.386719 C 814.683594 910.855469 816.707031 909.246094 818.804688 907.578125 C 822.980469 904.21875 827.496094 900.722656 831.890625 897.074219 C 840.449219 889.503906 849.171875 882.128906 855.183594 876.003906 C 858.265625 873.03125 860.832031 870.546875 862.628906 868.8125 C 864.429688 867.082031 865.429688 866.058594 865.429688 866.058594 C 865.429688 866.058594 869.382812 861.933594 875.308594 855.746094 C 881.410156 849.71875 888.664062 840.875 896.226562 832.304688 C 903.246094 823.28125 910.601562 814.503906 915.398438 807.386719 C 920.390625 800.40625 923.714844 795.753906 923.714844 795.753906 L 935.21875 778.464844 C 959.15625 741.132812 978.359375 700.484375 990.894531 657.667969 C 1003.929688 614.976562 1009.949219 570.207031 1010.34375 525.464844 L 1010.355469 525.429688 L 1010.359375 525.109375 L 1010.355469 524.789062"/></g><g clip-path="url(#b)"><path fill="#61008D" d="M 496.445312 484.230469 C 557.164062 484.230469 606.398438 434.996094 606.398438 374.28125 C 606.398438 313.558594 557.164062 264.328125 496.445312 264.328125 C 435.714844 264.328125 386.496094 313.558594 386.496094 374.28125 C 386.496094 434.996094 435.714844 484.230469 496.445312 484.230469 Z M 496.445312 280.617188 C 548.089844 280.617188 590.109375 322.636719 590.109375 374.28125 C 590.109375 425.925781 548.089844 467.941406 496.445312 467.941406 C 444.800781 467.941406 402.785156 425.925781 402.785156 374.28125 C 402.785156 322.636719 444.800781 280.617188 496.445312 280.617188 Z M 496.445312 280.617188"/></g><g clip-path="url(#c)"><path fill="#61008D" d="M 778.964844 534.527344 C 778.285156 534.429688 710.585938 524.328125 677.433594 486.839844 C 676.007812 485.226562 673.953125 484.28125 671.78125 484.234375 C 671.691406 484.230469 671.605469 484.230469 671.519531 484.230469 C 669.476562 484.230469 667.449219 485.113281 666.015625 486.605469 C 665.851562 486.773438 659.253906 493.511719 648.152344 501.667969 C 627.90625 486.960938 604.910156 475.632812 580.320312 468.519531 C 575.117188 473.15625 569.523438 477.363281 563.601562 481.097656 C 588.636719 486.734375 612.492188 497.097656 633.523438 511.367188 C 616.59375 521.425781 594.328125 530.730469 569.84375 530.730469 C 568.46875 530.730469 567.101562 530.699219 565.714844 530.640625 C 565.585938 530.636719 565.457031 530.632812 565.332031 530.632812 C 561.265625 530.632812 557.863281 533.828125 557.664062 537.890625 C 557.582031 539.535156 555.8125 578.695312 568.058594 623.75 C 584.519531 684.316406 618.703125 726.019531 666.910156 744.34375 C 667.796875 744.683594 668.742188 744.855469 669.683594 744.855469 C 670.347656 744.855469 671.007812 744.769531 671.65625 744.601562 C 672.589844 744.355469 690.699219 739.460938 712.277344 722.324219 L 712.277344 747.246094 C 712.277344 759.398438 702.335938 769.289062 690.117188 769.289062 L 302.765625 769.289062 C 290.550781 769.289062 280.617188 759.398438 280.617188 747.246094 L 280.617188 654.34375 C 280.617188 606.007812 301.292969 560.863281 338.835938 527.226562 C 364.136719 504.558594 395.71875 488.660156 429.296875 481.097656 C 423.375 477.363281 417.78125 473.160156 412.578125 468.523438 C 329.652344 492.515625 264.328125 563.832031 264.328125 654.34375 L 264.328125 747.246094 C 264.328125 768.398438 281.535156 785.578125 302.765625 785.578125 L 690.117188 785.578125 C 711.351562 785.578125 728.566406 768.398438 728.566406 747.246094 L 728.566406 707.398438 C 753.730469 680.9375 783.875 630.894531 785.574219 542.21875 C 785.652344 538.378906 782.816406 535.082031 778.964844 534.527344 Z M 716.414062 696.554688 C 696.488281 717.351562 676.746094 725.652344 669.972656 728.046875 C 628.265625 711.105469 598.496094 673.636719 583.777344 619.476562 C 575.304688 588.308594 573.921875 560.324219 573.816406 546.949219 C 619.441406 545.347656 656.851562 516.691406 671.3125 503.941406 C 702.171875 533.453125 750.546875 545.566406 769.078125 549.289062 C 766.019531 628.527344 738.957031 673.019531 716.414062 696.554688 Z M 716.414062 696.554688"/></g><path fill="#61008D" d="M 628.246094 604.988281 C 624.953125 601.914062 619.800781 602.097656 616.734375 605.382812 C 613.664062 608.671875 613.839844 613.824219 617.128906 616.894531 L 651.507812 649 C 653.070312 650.460938 655.066406 651.191406 657.066406 651.191406 C 659.015625 651.191406 660.964844 650.496094 662.515625 649.101562 L 725.871094 592.089844 C 729.210938 589.082031 729.484375 583.933594 726.476562 580.585938 C 723.464844 577.242188 718.316406 576.972656 714.972656 579.980469 L 657.167969 632 Z M 628.246094 604.988281"/><path fill="#61008D" d="M 372.183594 563.359375 C 375.402344 560.214844 375.464844 555.0625 372.320312 551.839844 C 369.179688 548.621094 364.023438 548.554688 360.804688 551.703125 C 335.355469 576.542969 321.339844 609.285156 321.339844 643.894531 L 321.339844 711.929688 C 321.339844 729.992188 328.035156 736.710938 346.050781 736.710938 L 467.941406 736.710938 C 472.4375 736.710938 476.085938 733.0625 476.085938 728.566406 C 476.085938 724.066406 472.4375 720.421875 467.941406 720.421875 L 346.050781 720.421875 C 339.960938 720.421875 338.589844 719.703125 338.5 719.679688 C 338.355469 719.464844 337.628906 718.082031 337.628906 711.929688 L 337.628906 643.894531 C 337.628906 613.707031 349.902344 585.109375 372.183594 563.359375 Z M 372.183594 563.359375"/><path fill="#61008D" d="M 398.710938 537.167969 C 398.710938 537.703125 398.660156 538.234375 398.554688 538.757812 C 398.449219 539.28125 398.296875 539.792969 398.09375 540.285156 C 397.886719 540.78125 397.636719 541.25 397.339844 541.695312 C 397.042969 542.136719 396.703125 542.550781 396.328125 542.929688 C 395.949219 543.304688 395.535156 543.644531 395.09375 543.941406 C 394.648438 544.238281 394.179688 544.488281 393.683594 544.695312 C 393.191406 544.898438 392.679688 545.050781 392.15625 545.15625 C 391.632812 545.261719 391.101562 545.3125 390.566406 545.3125 C 390.03125 545.3125 389.503906 545.261719 388.976562 545.15625 C 388.453125 545.050781 387.945312 544.898438 387.449219 544.695312 C 386.957031 544.488281 386.488281 544.238281 386.042969 543.941406 C 385.597656 543.644531 385.1875 543.304688 384.808594 542.929688 C 384.429688 542.550781 384.09375 542.136719 383.796875 541.695312 C 383.5 541.25 383.246094 540.78125 383.042969 540.285156 C 382.839844 539.792969 382.683594 539.28125 382.578125 538.757812 C 382.476562 538.234375 382.421875 537.703125 382.421875 537.167969 C 382.421875 536.632812 382.476562 536.105469 382.578125 535.578125 C 382.683594 535.054688 382.839844 534.546875 383.042969 534.050781 C 383.246094 533.558594 383.5 533.089844 383.796875 532.644531 C 384.09375 532.199219 384.429688 531.789062 384.808594 531.410156 C 385.1875 531.03125 385.597656 530.695312 386.042969 530.398438 C 386.488281 530.101562 386.957031 529.847656 387.449219 529.644531 C 387.945312 529.441406 388.453125 529.285156 388.976562 529.179688 C 389.503906 529.078125 390.03125 529.023438 390.566406 529.023438 C 391.101562 529.023438 391.632812 529.078125 392.15625 529.179688 C 392.679688 529.285156 393.191406 529.441406 393.683594 529.644531 C 394.179688 529.847656 394.648438 530.101562 395.09375 530.398438 C 395.535156 530.695312 395.949219 531.03125 396.328125 531.410156 C 396.703125 531.789062 397.042969 532.199219 397.339844 532.644531 C 397.636719 533.089844 397.886719 533.558594 398.09375 534.050781 C 398.296875 534.546875 398.449219 535.054688 398.554688 535.578125 C 398.660156 536.105469 398.710938 536.632812 398.710938 537.167969 Z M 398.710938 537.167969"/></svg>