<svg xmlns="http://www.w3.org/2000/svg" width="1050" viewBox="0 0 1050 1050" height="1050" version="1.0"><defs><clipPath id="a"><path d="M 39.859375 39.859375 L 1010.359375 39.859375 L 1010.359375 1010.359375 L 39.859375 1010.359375 Z M 39.859375 39.859375"/></clipPath><clipPath id="b"><path d="M 312 303.574219 L 739 303.574219 L 739 746.074219 L 312 746.074219 Z M 312 303.574219"/></clipPath></defs><path fill="#FFF" d="M-105 -105H1155V1155H-105z"/><path fill="#FFF" d="M-105 -105H1155V1155H-105z"/><g clip-path="url(#a)"><path fill="#61008D" d="M 980.335938 654.492188 C 968.03125 696.382812 949.246094 736.121094 925.933594 772.722656 C 906.691406 802.507812 884.804688 830.503906 860.210938 855.964844 C 857.03125 859.445312 853.480469 862.558594 850.105469 865.839844 C 846.671875 869.066406 843.335938 872.398438 839.828125 875.539062 L 829.171875 884.8125 L 823.839844 889.453125 L 818.308594 893.84375 L 807.269531 902.667969 C 803.53125 905.527344 799.671875 908.226562 795.886719 911.03125 C 788.398438 916.761719 780.429688 921.800781 772.628906 927.101562 C 771.507812 927.863281 770.324219 928.652344 769.09375 929.480469 C 767.824219 930.242188 766.503906 931.035156 765.125 931.867188 C 762.371094 933.511719 759.410156 935.28125 756.257812 937.164062 C 750.027344 941.082031 742.65625 944.765625 734.699219 948.996094 C 732.695312 950.027344 730.6875 951.15625 728.570312 952.167969 C 726.441406 953.160156 724.273438 954.167969 722.0625 955.191406 C 717.636719 957.234375 713.054688 959.355469 708.324219 961.539062 C 698.628906 965.328125 688.519531 969.878906 677.492188 973.410156 C 633.960938 989.195312 579.632812 998.953125 525.109375 999.179688 C 470.589844 998.953125 416.257812 989.195312 372.726562 973.410156 C 361.699219 969.878906 351.589844 965.328125 341.890625 961.539062 C 337.164062 959.355469 332.582031 957.234375 328.160156 955.191406 C 325.945312 954.167969 323.773438 953.160156 321.648438 952.171875 C 319.53125 951.160156 317.527344 950.027344 315.523438 948.996094 C 307.566406 944.769531 300.191406 941.082031 293.964844 937.167969 C 290.808594 935.28125 287.847656 933.511719 285.097656 931.867188 C 283.722656 931.042969 282.398438 930.246094 281.128906 929.480469 C 279.898438 928.65625 278.714844 927.863281 277.589844 927.109375 C 247.972656 907.699219 220.144531 885.648438 194.851562 860.882812 C 168.171875 834.230469 144.851562 804.382812 124.285156 772.730469 C 100.96875 736.125 82.183594 696.382812 69.878906 654.492188 C 57.070312 612.742188 51.148438 568.929688 50.761719 525.109375 C 51.148438 481.289062 57.070312 437.472656 69.878906 395.722656 C 82.183594 353.835938 100.96875 314.097656 124.28125 277.492188 C 143.527344 247.707031 165.414062 219.714844 190.003906 194.25 C 193.183594 190.773438 196.734375 187.660156 200.109375 184.375 C 203.546875 181.152344 206.882812 177.820312 210.386719 174.675781 L 221.046875 165.402344 L 226.375 160.761719 L 231.90625 156.371094 L 242.945312 147.550781 C 246.6875 144.691406 250.546875 141.988281 254.332031 139.1875 C 261.820312 133.457031 269.785156 128.417969 277.585938 123.113281 C 278.710938 122.355469 279.890625 121.566406 281.121094 120.738281 C 282.394531 119.972656 283.714844 119.179688 285.09375 118.351562 C 287.84375 116.703125 290.804688 114.933594 293.957031 113.050781 C 300.191406 109.136719 307.5625 105.453125 315.519531 101.21875 C 317.519531 100.1875 319.527344 99.0625 321.648438 98.046875 C 323.773438 97.058594 325.941406 96.050781 328.152344 95.023438 C 332.578125 92.980469 337.164062 90.863281 341.890625 88.679688 C 351.585938 84.886719 361.699219 80.335938 372.722656 76.804688 C 416.257812 61.019531 470.585938 51.261719 525.109375 51.035156 C 579.628906 51.261719 633.960938 61.019531 677.488281 76.804688 C 688.519531 80.335938 698.625 84.886719 708.324219 88.679688 C 713.054688 90.863281 717.632812 92.980469 722.058594 95.023438 C 724.269531 96.050781 726.441406 97.058594 728.570312 98.042969 C 730.683594 99.054688 732.691406 100.1875 734.695312 101.21875 C 742.648438 105.449219 750.027344 109.136719 756.253906 113.046875 C 759.40625 114.933594 762.367188 116.703125 765.121094 118.351562 C 766.492188 119.175781 767.816406 119.96875 769.089844 120.738281 C 770.320312 121.5625 771.503906 122.355469 772.625 123.109375 C 802.246094 142.519531 830.070312 164.570312 855.363281 189.335938 C 882.042969 215.984375 905.363281 245.835938 925.929688 277.488281 C 949.246094 314.089844 968.03125 353.835938 980.335938 395.722656 C 993.148438 437.472656 999.070312 481.289062 999.449219 525.109375 C 999.070312 568.929688 993.148438 612.742188 980.335938 654.492188 Z M 1010.355469 524.789062 L 1010.34375 524.746094 C 1009.949219 480.003906 1003.929688 435.234375 990.894531 392.546875 C 978.359375 349.726562 959.15625 309.082031 935.21875 271.753906 L 923.714844 254.457031 C 923.714844 254.457031 920.386719 249.804688 915.398438 242.828125 C 910.597656 235.707031 903.246094 226.933594 896.226562 217.910156 C 888.664062 209.34375 881.410156 200.5 875.308594 194.46875 C 869.382812 188.277344 865.429688 184.15625 865.429688 184.15625 C 865.429688 184.15625 864.429688 183.136719 862.628906 181.40625 C 860.832031 179.671875 858.265625 177.1875 855.183594 174.210938 C 849.171875 168.089844 840.449219 160.710938 831.890625 153.144531 C 827.496094 149.496094 822.980469 145.996094 818.804688 142.640625 C 816.707031 140.972656 814.683594 139.363281 812.761719 137.832031 C 810.773438 136.394531 808.890625 135.039062 807.152344 133.785156 C 800.203125 128.769531 795.566406 125.429688 795.566406 125.429688 C 795.566406 125.429688 794.558594 124.609375 792.929688 123.550781 C 791.308594 122.472656 789.15625 121.03125 787.003906 119.585938 C 782.691406 116.699219 778.378906 113.816406 778.378906 113.816406 C 777.230469 113.039062 776.023438 112.222656 774.765625 111.375 C 773.46875 110.585938 772.117188 109.769531 770.710938 108.921875 C 767.898438 107.226562 764.871094 105.410156 761.648438 103.476562 C 755.28125 99.460938 747.742188 95.671875 739.605469 91.335938 C 737.558594 90.273438 735.5 89.121094 733.335938 88.082031 C 731.160156 87.0625 728.941406 86.027344 726.683594 84.976562 C 722.15625 82.878906 717.464844 80.707031 712.625 78.464844 C 702.707031 74.566406 692.359375 69.917969 681.074219 66.285156 C 636.523438 50.101562 580.894531 40.078125 525.109375 39.859375 C 469.324219 40.078125 413.691406 50.101562 369.136719 66.289062 C 357.859375 69.917969 347.507812 74.570312 337.585938 78.46875 C 332.746094 80.707031 328.058594 82.878906 323.535156 84.980469 C 321.273438 86.03125 319.050781 87.066406 316.875 88.082031 C 314.710938 89.121094 312.65625 90.273438 310.609375 91.335938 C 302.46875 95.671875 294.929688 99.460938 288.5625 103.476562 C 285.34375 105.410156 282.316406 107.230469 279.5 108.921875 C 278.097656 109.769531 276.742188 110.589844 275.449219 111.375 C 274.1875 112.226562 272.984375 113.039062 271.832031 113.816406 C 271.832031 113.816406 267.523438 116.699219 263.210938 119.585938 C 261.058594 121.03125 258.902344 122.472656 257.289062 123.554688 C 255.65625 124.609375 254.648438 125.429688 254.648438 125.429688 C 254.648438 125.429688 250.015625 128.769531 243.066406 133.785156 C 241.328125 135.039062 239.445312 136.394531 237.453125 137.832031 C 235.53125 139.363281 233.507812 140.972656 231.410156 142.640625 C 227.238281 145.996094 222.71875 149.496094 218.324219 153.144531 C 209.765625 160.710938 201.042969 168.089844 195.03125 174.210938 C 191.949219 177.1875 189.386719 179.671875 187.585938 181.40625 C 185.785156 183.136719 184.785156 184.15625 184.785156 184.15625 C 184.785156 184.15625 180.835938 188.277344 174.90625 194.46875 C 168.804688 200.5 161.554688 209.34375 153.992188 217.910156 C 146.96875 226.933594 139.617188 235.710938 134.816406 242.828125 C 129.824219 249.808594 126.5 254.460938 126.5 254.460938 L 114.996094 271.753906 C 91.058594 309.082031 71.859375 349.730469 59.320312 392.546875 C 46.285156 435.238281 40.269531 480.007812 39.871094 524.75 L 39.863281 524.789062 L 39.859375 525.109375 L 39.863281 525.429688 L 39.871094 525.46875 C 40.269531 570.210938 46.285156 614.980469 59.320312 657.667969 C 71.859375 700.488281 91.058594 741.132812 114.996094 778.464844 L 126.503906 795.753906 C 126.503906 795.753906 129.832031 800.410156 134.816406 807.386719 C 139.621094 814.511719 146.96875 823.28125 153.992188 832.304688 C 161.554688 840.875 168.804688 849.71875 174.90625 855.746094 C 180.835938 861.933594 184.785156 866.058594 184.785156 866.058594 C 184.785156 866.058594 185.785156 867.082031 187.585938 868.8125 C 189.386719 870.546875 191.949219 873.03125 195.03125 876.003906 C 201.042969 882.128906 209.765625 889.503906 218.324219 897.074219 C 222.71875 900.722656 227.238281 904.21875 231.410156 907.578125 C 233.507812 909.246094 235.53125 910.855469 237.453125 912.386719 C 239.445312 913.820312 241.328125 915.175781 243.066406 916.429688 C 250.015625 921.449219 254.648438 924.789062 254.648438 924.789062 C 254.648438 924.789062 255.65625 925.609375 257.289062 926.660156 C 258.90625 927.746094 261.0625 929.1875 263.210938 930.632812 C 267.523438 933.515625 271.835938 936.402344 271.835938 936.402344 C 272.988281 937.179688 274.191406 937.996094 275.449219 938.84375 C 276.746094 939.632812 278.097656 940.449219 279.503906 941.296875 C 282.316406 942.988281 285.347656 944.804688 288.566406 946.742188 C 294.9375 950.753906 302.472656 954.546875 310.613281 958.878906 C 312.660156 959.941406 314.714844 961.097656 316.878906 962.136719 C 319.054688 963.152344 321.277344 964.1875 323.535156 965.242188 C 328.058594 967.335938 332.753906 969.507812 337.589844 971.753906 C 347.511719 975.652344 357.859375 980.296875 369.140625 983.933594 C 413.691406 1000.113281 469.324219 1010.136719 525.109375 1010.359375 C 580.894531 1010.136719 636.523438 1000.113281 681.078125 983.929688 C 692.359375 980.296875 702.710938 975.644531 712.628906 971.746094 C 717.46875 969.507812 722.15625 967.335938 726.683594 965.238281 C 728.945312 964.183594 731.164062 963.148438 733.34375 962.136719 C 735.503906 961.097656 737.5625 959.941406 739.609375 958.878906 C 747.746094 954.546875 755.285156 950.753906 761.652344 946.742188 C 764.875 944.804688 767.898438 942.984375 770.71875 941.296875 C 772.117188 940.449219 773.472656 939.625 774.765625 938.84375 C 776.027344 937.988281 777.234375 937.179688 778.382812 936.402344 C 778.382812 936.402344 782.691406 933.515625 787.003906 930.632812 C 789.160156 929.1875 791.3125 927.746094 792.929688 926.660156 C 794.558594 925.609375 795.566406 924.789062 795.566406 924.789062 C 795.566406 924.789062 800.203125 921.449219 807.152344 916.429688 C 808.890625 915.175781 810.773438 913.820312 812.761719 912.386719 C 814.683594 910.855469 816.707031 909.246094 818.804688 907.578125 C 822.980469 904.21875 827.496094 900.722656 831.890625 897.074219 C 840.449219 889.503906 849.171875 882.128906 855.183594 876.003906 C 858.265625 873.03125 860.832031 870.546875 862.628906 868.8125 C 864.429688 867.082031 865.429688 866.058594 865.429688 866.058594 C 865.429688 866.058594 869.382812 861.933594 875.308594 855.746094 C 881.410156 849.71875 888.664062 840.875 896.226562 832.304688 C 903.246094 823.28125 910.601562 814.503906 915.398438 807.386719 C 920.390625 800.40625 923.714844 795.753906 923.714844 795.753906 L 935.21875 778.464844 C 959.15625 741.132812 978.359375 700.484375 990.894531 657.667969 C 1003.929688 614.976562 1009.949219 570.207031 1010.34375 525.464844 L 1010.355469 525.429688 L 1010.359375 525.109375 L 1010.355469 524.789062"/></g><g clip-path="url(#b)"><path fill="#61008D" d="M 704.773438 569.03125 L 595.511719 670.363281 L 575.914062 652.050781 L 588.128906 639.84375 C 591.035156 636.941406 591.035156 632.238281 588.128906 629.335938 C 585.222656 626.433594 580.515625 626.433594 577.609375 629.335938 L 565.039062 641.890625 L 537.421875 616.085938 L 538.683594 614.824219 C 549.203125 622.3125 562.699219 624.992188 575.421875 621.816406 L 584.675781 619.503906 C 588.65625 618.507812 591.082031 614.472656 590.085938 610.488281 C 589.085938 606.507812 585.050781 604.089844 581.0625 605.082031 L 571.8125 607.394531 C 561.703125 609.917969 550.863281 606.894531 543.527344 599.496094 C 542.132812 598.09375 540.234375 597.296875 538.25 597.296875 C 538.25 597.296875 538.246094 597.296875 538.242188 597.296875 C 536.261719 597.296875 534.367188 598.085938 532.972656 599.484375 L 516.367188 616.152344 C 514.261719 618.261719 511.457031 619.429688 508.472656 619.429688 C 508.46875 619.429688 508.464844 619.429688 508.460938 619.429688 C 505.480469 619.429688 502.679688 618.273438 500.574219 616.167969 L 499.324219 614.921875 C 497.875 613.472656 497.875 611.113281 499.324219 609.664062 L 523.179688 585.832031 C 525.289062 583.722656 528.089844 582.5625 531.070312 582.5625 L 585.863281 582.5625 C 587.75 582.5625 589.570312 581.84375 590.945312 580.554688 L 697.335938 480.890625 C 697.363281 480.859375 697.390625 480.839844 697.417969 480.8125 L 701.707031 476.792969 L 706.019531 481.101562 C 717.851562 492.925781 724.230469 508.644531 723.984375 525.359375 C 723.742188 542.078125 716.902344 557.601562 704.773438 569.03125 Z M 541.0625 726.105469 C 538.546875 728.707031 535.363281 730.351562 531.992188 730.957031 L 535.597656 726.765625 C 539.484375 722.246094 541.375 716.492188 540.925781 710.550781 C 540.480469 704.613281 537.742188 699.203125 533.222656 695.320312 C 528.890625 691.601562 523.53125 689.84375 518.222656 689.953125 C 517.539062 684.695312 514.988281 679.664062 510.660156 675.945312 C 506.453125 672.332031 501.171875 670.445312 495.671875 670.566406 C 494.960938 665.109375 492.300781 660.179688 488.09375 656.566406 C 483.886719 652.953125 478.601562 651.066406 473.097656 651.1875 C 472.40625 645.933594 469.859375 640.910156 465.53125 637.1875 C 456.203125 629.175781 442.085938 630.242188 434.066406 639.566406 L 424.582031 650.589844 L 357.976562 593.707031 C 345.414062 582.980469 337.839844 568 336.644531 551.53125 C 335.449219 535.085938 340.769531 519.191406 351.621094 506.769531 L 354.210938 503.921875 L 451.511719 589.476562 C 452.871094 590.671875 454.617188 591.332031 456.425781 591.332031 L 496.636719 591.332031 L 488.808594 599.15625 C 481.558594 606.398438 481.558594 618.1875 488.808594 625.429688 L 490.054688 626.679688 C 494.972656 631.59375 501.507812 634.296875 508.460938 634.296875 C 508.472656 634.296875 508.480469 634.296875 508.492188 634.296875 C 515.457031 634.289062 521.996094 631.566406 526.910156 626.640625 L 526.921875 626.625 L 584.890625 680.789062 Z M 504.132812 729.140625 C 502.625 727.847656 501.714844 726.046875 501.566406 724.0625 C 501.417969 722.085938 502.042969 720.167969 503.339844 718.660156 L 513.039062 707.390625 C 514.503906 705.679688 516.589844 704.800781 518.683594 704.800781 C 520.398438 704.800781 522.125 705.394531 523.527344 706.59375 C 525.035156 707.890625 525.945312 709.691406 526.09375 711.671875 C 526.242188 713.652344 525.613281 715.570312 524.316406 717.074219 L 514.625 728.347656 C 511.949219 731.457031 507.242188 731.8125 504.132812 729.140625 Z M 481.574219 709.761719 C 480.066406 708.46875 479.152344 706.667969 479 704.6875 C 478.851562 702.707031 479.484375 700.789062 480.777344 699.285156 L 490.472656 688.007812 C 491.941406 686.300781 494.027344 685.425781 496.117188 685.425781 C 497.835938 685.425781 499.5625 686.011719 500.960938 687.21875 C 504.070312 689.890625 504.425781 694.59375 501.753906 697.699219 L 492.0625 708.972656 C 490.765625 710.476562 488.960938 711.386719 486.980469 711.535156 C 484.996094 711.6875 483.078125 711.058594 481.574219 709.761719 Z M 459.007812 690.386719 C 455.894531 687.714844 455.539062 683.011719 458.214844 679.90625 L 467.910156 668.632812 C 469.207031 667.128906 471.007812 666.214844 472.992188 666.066406 C 474.976562 665.917969 476.890625 666.546875 478.398438 667.839844 C 481.511719 670.511719 481.863281 675.214844 479.191406 678.320312 L 469.496094 689.59375 C 468.199219 691.101562 466.394531 692.011719 464.417969 692.160156 C 462.4375 692.308594 460.511719 691.683594 459.007812 690.386719 Z M 436.445312 671.011719 C 433.332031 668.339844 432.976562 663.636719 435.648438 660.53125 L 445.347656 649.253906 C 446.816406 647.546875 448.898438 646.671875 450.992188 646.671875 C 452.710938 646.671875 454.433594 647.257812 455.835938 648.464844 C 458.945312 651.136719 459.304688 655.835938 456.628906 658.945312 L 446.933594 670.214844 C 444.261719 673.328125 439.554688 673.683594 436.445312 671.011719 Z M 330.425781 384.960938 C 340.222656 345.816406 375.265625 318.472656 415.644531 318.472656 C 443.144531 318.472656 469.417969 331.601562 485.917969 353.585938 L 509.632812 385.183594 C 511.035156 387.054688 513.242188 388.15625 515.582031 388.15625 C 517.921875 388.15625 520.128906 387.054688 521.53125 385.183594 L 545.246094 353.585938 C 561.746094 331.601562 588.019531 318.472656 615.519531 318.472656 C 655.898438 318.472656 690.941406 345.816406 700.738281 384.960938 C 708.0625 414.246094 702.828125 445.460938 686.398438 470.757812 L 582.921875 567.699219 L 531.070312 567.699219 C 524.113281 567.699219 517.578125 570.40625 512.660156 575.316406 L 510.332031 577.648438 C 507.84375 576.875 505.246094 576.46875 502.625 576.46875 L 459.234375 576.46875 L 358.773438 488.128906 C 332.09375 461.230469 321.230469 421.722656 330.425781 384.960938 Z M 716.539062 470.59375 L 708.007812 462.070312 C 719.269531 436.910156 721.9375 408.40625 715.167969 381.359375 C 703.714844 335.582031 662.738281 303.609375 615.519531 303.609375 C 583.359375 303.609375 552.640625 318.960938 533.347656 344.667969 L 515.582031 368.335938 L 497.816406 344.667969 C 478.523438 318.960938 447.800781 303.609375 415.644531 303.609375 C 368.425781 303.609375 327.449219 335.582031 315.996094 381.359375 C 310.820312 402.042969 311.089844 423.839844 316.773438 444.390625 C 321.808594 462.609375 331.003906 479.476562 343.515625 493.582031 L 340.5625 496.828125 C 340.53125 496.859375 340.5 496.898438 340.46875 496.933594 C 326.953125 512.371094 320.324219 532.144531 321.808594 552.605469 C 323.289062 573.070312 332.703125 591.679688 348.3125 605.007812 L 418.996094 665.375 C 418.996094 671.644531 421.625 677.882812 426.75 682.28125 C 430.832031 685.789062 435.929688 687.671875 441.257812 687.671875 C 441.417969 687.671875 441.578125 687.65625 441.734375 687.652344 C 442.445312 693.109375 445.101562 698.046875 449.3125 701.660156 C 453.515625 705.273438 458.6875 707.035156 463.839844 707.035156 C 463.992188 707.035156 464.144531 707.03125 464.296875 707.027344 C 465.003906 712.484375 467.667969 717.421875 471.875 721.039062 C 475.957031 724.542969 481.054688 726.425781 486.386719 726.425781 C 486.542969 726.425781 486.699219 726.414062 486.859375 726.410156 C 487.570312 731.863281 490.230469 736.800781 494.441406 740.414062 C 498.640625 744.023438 503.816406 745.792969 508.96875 745.792969 C 511.96875 745.792969 514.964844 745.183594 517.757812 743.996094 C 521.425781 745.398438 525.25 746.101562 529.046875 746.101562 C 537.414062 746.101562 545.640625 742.761719 551.757812 736.4375 L 600.699219 685.832031 L 714.933594 579.886719 C 730.054688 565.632812 738.554688 546.347656 738.859375 525.578125 C 739.164062 504.808594 731.238281 485.28125 716.539062 470.59375"/></g><path fill="#61008D" d="M 575.433594 545.402344 C 577.207031 545.402344 578.988281 544.769531 580.40625 543.492188 L 588.667969 536.0625 C 591.722656 533.316406 591.96875 528.617188 589.226562 525.566406 C 586.476562 522.515625 581.773438 522.265625 578.71875 525.015625 L 570.457031 532.445312 C 567.402344 535.191406 567.15625 539.890625 569.902344 542.941406 C 571.371094 544.570312 573.398438 545.402344 575.433594 545.402344"/><path fill="#61008D" d="M 605.1875 518.644531 C 606.957031 518.644531 608.738281 518.019531 610.15625 516.738281 L 639.910156 489.984375 C 642.964844 487.234375 643.210938 482.535156 640.460938 479.484375 C 637.714844 476.4375 633.011719 476.1875 629.957031 478.933594 L 600.207031 505.691406 C 597.152344 508.4375 596.90625 513.136719 599.65625 516.183594 C 601.121094 517.816406 603.148438 518.644531 605.1875 518.644531"/></svg>