<svg xmlns="http://www.w3.org/2000/svg" width="1050" viewBox="0 0 1050 1050" height="1050" version="1.0"><defs><clipPath id="a"><path d="M 39.859375 39.859375 L 1010.359375 39.859375 L 1010.359375 1010.359375 L 39.859375 1010.359375 Z M 39.859375 39.859375"/></clipPath><clipPath id="b"><path d="M 340 242.363281 L 712 242.363281 L 712 473 L 340 473 Z M 340 242.363281"/></clipPath><clipPath id="c"><path d="M 283 436 L 770 436 L 770 807.863281 L 283 807.863281 Z M 283 436"/></clipPath></defs><path fill="#FFF" d="M-105 -105H1155V1155H-105z"/><path fill="#FFF" d="M-105 -105H1155V1155H-105z"/><g clip-path="url(#a)"><path fill="#61008D" d="M 980.335938 654.492188 C 968.03125 696.382812 949.246094 736.121094 925.933594 772.722656 C 906.691406 802.507812 884.804688 830.503906 860.210938 855.964844 C 857.03125 859.445312 853.480469 862.558594 850.105469 865.839844 C 846.671875 869.066406 843.335938 872.398438 839.828125 875.539062 L 829.171875 884.8125 L 823.839844 889.453125 L 818.308594 893.84375 L 807.269531 902.667969 C 803.53125 905.527344 799.671875 908.226562 795.886719 911.027344 C 788.398438 916.761719 780.429688 921.800781 772.628906 927.101562 C 771.507812 927.859375 770.324219 928.652344 769.09375 929.480469 C 767.824219 930.242188 766.503906 931.035156 765.125 931.867188 C 762.371094 933.511719 759.410156 935.28125 756.257812 937.164062 C 750.027344 941.082031 742.65625 944.765625 734.699219 948.996094 C 732.695312 950.027344 730.6875 951.15625 728.570312 952.167969 C 726.441406 953.160156 724.273438 954.167969 722.0625 955.191406 C 717.636719 957.234375 713.054688 959.351562 708.324219 961.539062 C 698.628906 965.328125 688.519531 969.878906 677.492188 973.410156 C 633.960938 989.195312 579.632812 998.953125 525.109375 999.179688 C 470.589844 998.953125 416.257812 989.195312 372.726562 973.410156 C 361.699219 969.878906 351.589844 965.328125 341.890625 961.539062 C 337.164062 959.351562 332.582031 957.234375 328.160156 955.191406 C 325.945312 954.167969 323.773438 953.160156 321.648438 952.171875 C 319.53125 951.160156 317.527344 950.027344 315.523438 948.996094 C 307.566406 944.769531 300.191406 941.082031 293.964844 937.167969 C 290.808594 935.28125 287.847656 933.511719 285.097656 931.867188 C 283.722656 931.042969 282.398438 930.246094 281.128906 929.480469 C 279.898438 928.65625 278.714844 927.859375 277.589844 927.109375 C 247.972656 907.699219 220.144531 885.648438 194.851562 860.878906 C 168.171875 834.230469 144.851562 804.382812 124.285156 772.726562 C 100.96875 736.125 82.183594 696.382812 69.878906 654.492188 C 57.070312 612.742188 51.148438 568.929688 50.761719 525.109375 C 51.148438 481.289062 57.070312 437.472656 69.878906 395.722656 C 82.183594 353.835938 100.96875 314.097656 124.28125 277.492188 C 143.527344 247.707031 165.414062 219.714844 190.003906 194.25 C 193.183594 190.773438 196.734375 187.660156 200.109375 184.375 C 203.546875 181.152344 206.882812 177.820312 210.386719 174.675781 L 221.046875 165.402344 L 226.375 160.761719 L 231.90625 156.371094 L 242.945312 147.550781 C 246.6875 144.691406 250.546875 141.988281 254.332031 139.1875 C 261.820312 133.457031 269.785156 128.417969 277.585938 123.113281 C 278.710938 122.355469 279.890625 121.566406 281.121094 120.738281 C 282.394531 119.972656 283.714844 119.179688 285.09375 118.351562 C 287.84375 116.703125 290.804688 114.933594 293.957031 113.050781 C 300.191406 109.136719 307.5625 105.453125 315.519531 101.21875 C 317.519531 100.1875 319.527344 99.0625 321.648438 98.046875 C 323.773438 97.058594 325.941406 96.050781 328.152344 95.023438 C 332.578125 92.980469 337.164062 90.863281 341.890625 88.675781 C 351.585938 84.886719 361.699219 80.335938 372.722656 76.804688 C 416.257812 61.019531 470.585938 51.261719 525.109375 51.035156 C 579.628906 51.261719 633.960938 61.019531 677.488281 76.804688 C 688.519531 80.335938 698.625 84.886719 708.324219 88.675781 C 713.054688 90.863281 717.632812 92.980469 722.058594 95.023438 C 724.269531 96.050781 726.441406 97.058594 728.570312 98.042969 C 730.683594 99.054688 732.691406 100.1875 734.695312 101.21875 C 742.648438 105.449219 750.027344 109.136719 756.253906 113.046875 C 759.40625 114.933594 762.367188 116.703125 765.121094 118.351562 C 766.492188 119.175781 767.816406 119.96875 769.089844 120.738281 C 770.320312 121.5625 771.503906 122.355469 772.625 123.109375 C 802.246094 142.519531 830.070312 164.570312 855.363281 189.335938 C 882.042969 215.984375 905.363281 245.835938 925.929688 277.488281 C 949.246094 314.089844 968.03125 353.835938 980.335938 395.722656 C 993.148438 437.472656 999.070312 481.289062 999.449219 525.109375 C 999.070312 568.929688 993.148438 612.742188 980.335938 654.492188 Z M 1010.355469 524.789062 L 1010.34375 524.746094 C 1009.949219 480.003906 1003.929688 435.234375 990.894531 392.546875 C 978.359375 349.726562 959.15625 309.082031 935.21875 271.753906 L 923.714844 254.457031 C 923.714844 254.457031 920.386719 249.804688 915.398438 242.828125 C 910.597656 235.707031 903.246094 226.933594 896.226562 217.910156 C 888.664062 209.34375 881.410156 200.5 875.308594 194.46875 C 869.382812 188.277344 865.429688 184.15625 865.429688 184.15625 C 865.429688 184.15625 864.429688 183.136719 862.628906 181.40625 C 860.832031 179.671875 858.265625 177.1875 855.183594 174.210938 C 849.171875 168.089844 840.449219 160.710938 831.890625 153.144531 C 827.496094 149.496094 822.980469 145.996094 818.804688 142.640625 C 816.707031 140.972656 814.683594 139.363281 812.761719 137.832031 C 810.773438 136.394531 808.890625 135.039062 807.152344 133.785156 C 800.203125 128.769531 795.566406 125.429688 795.566406 125.429688 C 795.566406 125.429688 794.558594 124.609375 792.929688 123.550781 C 791.308594 122.472656 789.15625 121.03125 787.003906 119.585938 C 782.691406 116.699219 778.378906 113.8125 778.378906 113.8125 C 777.230469 113.039062 776.023438 112.222656 774.765625 111.375 C 773.46875 110.585938 772.117188 109.769531 770.710938 108.921875 C 767.898438 107.226562 764.871094 105.410156 761.648438 103.476562 C 755.28125 99.460938 747.742188 95.671875 739.605469 91.335938 C 737.558594 90.273438 735.5 89.121094 733.335938 88.082031 C 731.160156 87.0625 728.941406 86.027344 726.683594 84.976562 C 722.15625 82.878906 717.464844 80.707031 712.625 78.464844 C 702.707031 74.566406 692.359375 69.917969 681.074219 66.285156 C 636.523438 50.101562 580.894531 40.078125 525.109375 39.859375 C 469.324219 40.078125 413.691406 50.101562 369.136719 66.289062 C 357.859375 69.917969 347.507812 74.570312 337.585938 78.46875 C 332.746094 80.707031 328.058594 82.878906 323.535156 84.980469 C 321.273438 86.03125 319.050781 87.066406 316.875 88.082031 C 314.710938 89.121094 312.65625 90.273438 310.609375 91.335938 C 302.46875 95.671875 294.929688 99.460938 288.5625 103.476562 C 285.34375 105.410156 282.316406 107.230469 279.5 108.921875 C 278.097656 109.769531 276.742188 110.589844 275.449219 111.375 C 274.1875 112.226562 272.984375 113.039062 271.832031 113.8125 C 271.832031 113.8125 267.523438 116.699219 263.210938 119.585938 C 261.058594 121.03125 258.902344 122.472656 257.289062 123.554688 C 255.65625 124.609375 254.648438 125.429688 254.648438 125.429688 C 254.648438 125.429688 250.015625 128.769531 243.066406 133.785156 C 241.328125 135.039062 239.445312 136.394531 237.453125 137.832031 C 235.53125 139.363281 233.507812 140.972656 231.410156 142.640625 C 227.238281 145.996094 222.71875 149.496094 218.324219 153.144531 C 209.765625 160.710938 201.042969 168.089844 195.03125 174.210938 C 191.949219 177.1875 189.386719 179.671875 187.585938 181.40625 C 185.785156 183.136719 184.785156 184.15625 184.785156 184.15625 C 184.785156 184.15625 180.835938 188.277344 174.90625 194.46875 C 168.804688 200.5 161.554688 209.34375 153.992188 217.910156 C 146.96875 226.933594 139.617188 235.710938 134.816406 242.828125 C 129.824219 249.808594 126.5 254.460938 126.5 254.460938 L 114.996094 271.753906 C 91.058594 309.082031 71.859375 349.730469 59.320312 392.546875 C 46.285156 435.238281 40.269531 480.007812 39.871094 524.75 L 39.863281 524.789062 L 39.859375 525.109375 L 39.863281 525.429688 L 39.871094 525.46875 C 40.269531 570.210938 46.285156 614.980469 59.320312 657.667969 C 71.859375 700.488281 91.058594 741.132812 114.996094 778.464844 L 126.503906 795.753906 C 126.503906 795.753906 129.832031 800.410156 134.816406 807.386719 C 139.621094 814.511719 146.96875 823.28125 153.992188 832.304688 C 161.554688 840.875 168.804688 849.71875 174.90625 855.746094 C 180.835938 861.933594 184.785156 866.058594 184.785156 866.058594 C 184.785156 866.058594 185.785156 867.082031 187.585938 868.8125 C 189.386719 870.546875 191.949219 873.03125 195.03125 876.003906 C 201.042969 882.128906 209.765625 889.503906 218.324219 897.074219 C 222.71875 900.722656 227.238281 904.21875 231.410156 907.578125 C 233.507812 909.246094 235.53125 910.855469 237.453125 912.386719 C 239.445312 913.820312 241.328125 915.175781 243.066406 916.429688 C 250.015625 921.449219 254.648438 924.789062 254.648438 924.789062 C 254.648438 924.789062 255.65625 925.609375 257.289062 926.660156 C 258.90625 927.746094 261.0625 929.1875 263.210938 930.632812 C 267.523438 933.515625 271.835938 936.402344 271.835938 936.402344 C 272.988281 937.179688 274.191406 937.996094 275.449219 938.84375 C 276.746094 939.632812 278.097656 940.449219 279.503906 941.292969 C 282.316406 942.988281 285.347656 944.804688 288.566406 946.742188 C 294.9375 950.753906 302.472656 954.546875 310.613281 958.878906 C 312.660156 959.941406 314.714844 961.097656 316.878906 962.136719 C 319.054688 963.152344 321.277344 964.1875 323.535156 965.242188 C 328.058594 967.335938 332.753906 969.507812 337.589844 971.753906 C 347.511719 975.652344 357.859375 980.296875 369.140625 983.933594 C 413.691406 1000.113281 469.324219 1010.136719 525.109375 1010.359375 C 580.894531 1010.136719 636.523438 1000.113281 681.078125 983.929688 C 692.359375 980.296875 702.710938 975.644531 712.628906 971.746094 C 717.46875 969.507812 722.15625 967.335938 726.683594 965.234375 C 728.945312 964.183594 731.164062 963.148438 733.34375 962.136719 C 735.503906 961.097656 737.5625 959.941406 739.609375 958.878906 C 747.746094 954.546875 755.285156 950.753906 761.652344 946.742188 C 764.875 944.804688 767.898438 942.984375 770.71875 941.292969 C 772.117188 940.449219 773.472656 939.625 774.765625 938.84375 C 776.027344 937.988281 777.234375 937.179688 778.382812 936.402344 C 778.382812 936.402344 782.691406 933.515625 787.003906 930.632812 C 789.160156 929.1875 791.3125 927.746094 792.929688 926.660156 C 794.558594 925.609375 795.566406 924.789062 795.566406 924.789062 C 795.566406 924.789062 800.203125 921.449219 807.152344 916.429688 C 808.890625 915.175781 810.773438 913.820312 812.761719 912.386719 C 814.683594 910.855469 816.707031 909.246094 818.804688 907.578125 C 822.980469 904.21875 827.496094 900.722656 831.890625 897.074219 C 840.449219 889.503906 849.171875 882.128906 855.183594 876.003906 C 858.265625 873.03125 860.832031 870.546875 862.628906 868.8125 C 864.429688 867.082031 865.429688 866.058594 865.429688 866.058594 C 865.429688 866.058594 869.382812 861.933594 875.308594 855.746094 C 881.410156 849.71875 888.664062 840.875 896.226562 832.304688 C 903.246094 823.28125 910.601562 814.503906 915.398438 807.386719 C 920.390625 800.40625 923.714844 795.753906 923.714844 795.753906 L 935.21875 778.464844 C 959.15625 741.132812 978.359375 700.484375 990.894531 657.667969 C 1003.929688 614.976562 1009.949219 570.207031 1010.34375 525.464844 L 1010.355469 525.429688 L 1010.359375 525.109375 L 1010.355469 524.789062"/></g><g clip-path="url(#b)"><path fill="#61008D" d="M 358.308594 268.871094 C 358.308594 264.011719 361.84375 260.035156 366.261719 260.035156 L 686.074219 260.035156 C 690.492188 260.035156 694.023438 264.011719 694.023438 268.871094 L 694.023438 454.425781 L 711.695312 472.097656 L 711.695312 268.871094 C 711.695312 254.292969 700.207031 242.363281 686.074219 242.363281 L 366.261719 242.363281 C 352.125 242.363281 340.640625 254.292969 340.640625 268.871094 L 340.640625 469.890625 L 358.308594 451.777344 Z M 358.308594 268.871094"/></g><g clip-path="url(#c)"><path fill="#61008D" d="M 761.609375 543.226562 L 660.894531 443.824219 C 651.175781 434.105469 635.273438 434.105469 626 443.824219 C 626 443.824219 604.355469 465.03125 604.355469 465.03125 C 599.496094 469.890625 596.84375 476.074219 596.84375 482.703125 C 596.84375 484.027344 596.84375 485.351562 597.285156 486.234375 L 586.242188 497.722656 C 584.917969 499.046875 583.152344 499.929688 581.382812 499.488281 L 551.347656 496.839844 C 544.277344 496.398438 537.210938 498.605469 532.351562 503.90625 L 522.191406 514.070312 L 519.101562 510.976562 C 514.683594 506.558594 508.5 503.90625 502.3125 503.90625 L 472.277344 503.90625 C 470.507812 503.90625 469.183594 503.464844 467.859375 502.140625 L 450.632812 485.351562 C 451.515625 478.285156 449.304688 470.773438 444.003906 465.472656 L 422.800781 444.265625 C 418.386719 439.40625 412.199219 437.195312 405.574219 437.195312 C 398.949219 437.195312 392.765625 439.847656 388.347656 444.265625 L 290.285156 543.226562 C 281.007812 552.945312 281.007812 568.410156 290.285156 578.128906 L 311.488281 599.335938 C 315.902344 604.195312 322.089844 606.40625 328.714844 606.40625 C 330.921875 606.40625 333.132812 605.960938 335.339844 605.519531 L 378.1875 648.375 L 365.820312 660.746094 C 360.960938 665.605469 358.308594 671.789062 358.308594 678.417969 C 358.308594 685.042969 360.960938 691.230469 365.820312 696.089844 C 365.820312 696.089844 375.097656 705.367188 375.097656 705.367188 C 379.511719 709.785156 385.253906 711.992188 391 712.4375 C 391.441406 718.179688 394.089844 723.921875 398.066406 727.898438 L 407.34375 737.175781 C 411.757812 741.59375 417.5 743.804688 423.246094 744.246094 C 423.6875 749.988281 426.335938 755.730469 430.3125 759.707031 L 439.589844 768.984375 C 444.003906 773.402344 449.75 775.613281 455.492188 776.054688 C 455.933594 781.796875 458.582031 787.539062 462.558594 791.515625 C 462.558594 791.515625 471.835938 800.792969 471.835938 800.792969 C 476.695312 805.65625 483.320312 807.863281 489.503906 807.863281 C 495.6875 807.863281 502.3125 805.65625 507.171875 800.792969 L 518.65625 789.308594 L 523.074219 793.726562 C 528.816406 799.46875 537.652344 803.445312 546.046875 803.445312 C 554.4375 803.445312 561.949219 800.351562 567.691406 794.609375 C 572.105469 790.191406 575.199219 784.449219 576.082031 778.261719 C 576.082031 779.148438 584.476562 779.589844 585.359375 779.589844 C 593.753906 779.589844 601.261719 776.496094 607.003906 770.753906 C 611.863281 765.894531 614.953125 759.265625 615.398438 752.640625 C 615.398438 753.082031 621.582031 753.523438 622.023438 753.523438 C 630.414062 753.523438 637.925781 750.429688 643.667969 744.6875 C 649.851562 738.5 652.945312 730.105469 652.503906 721.714844 C 652.503906 721.714844 653.386719 721.714844 653.828125 721.714844 C 662.21875 721.714844 669.730469 718.621094 675.472656 712.878906 C 687.839844 700.507812 687.398438 680.625 674.589844 667.8125 L 664.429688 657.652344 L 716.109375 605.519531 C 718.320312 605.960938 720.085938 606.40625 722.296875 606.40625 C 728.480469 606.40625 735.105469 604.195312 739.964844 599.335938 L 761.609375 578.128906 C 766.46875 573.269531 769.117188 567.085938 769.117188 560.457031 C 769.117188 554.273438 766.46875 548.085938 761.609375 543.226562 Z M 333.574219 586.964844 C 330.921875 589.617188 326.503906 589.617188 324.296875 586.964844 L 303.09375 565.757812 C 300.445312 563.109375 300.445312 558.691406 303.09375 556.039062 C 303.09375 556.039062 401.15625 456.636719 401.15625 456.636719 C 403.808594 453.984375 408.226562 453.984375 410.433594 456.636719 L 431.636719 477.839844 C 434.289062 480.492188 434.289062 484.910156 431.636719 487.5625 Z M 398.066406 692.554688 C 394.972656 695.648438 390.554688 695.648438 387.464844 692.554688 C 387.464844 692.554688 378.1875 683.277344 378.1875 683.277344 C 375.539062 680.625 375.539062 675.765625 378.1875 673.117188 L 398.066406 653.234375 C 401.15625 650.140625 405.574219 650.140625 408.667969 653.234375 C 408.667969 653.234375 417.945312 662.511719 417.945312 662.511719 C 420.59375 665.164062 420.59375 670.023438 417.945312 672.675781 Z M 430.3125 724.363281 C 427.21875 727.457031 422.800781 727.457031 419.710938 724.363281 L 410.433594 715.085938 C 407.785156 712.4375 407.785156 708.019531 410.433594 704.925781 C 410.433594 704.925781 430.3125 685.042969 430.753906 685.042969 C 433.402344 682.394531 438.261719 682.394531 441.355469 685.042969 C 441.355469 685.042969 450.632812 694.320312 450.632812 694.320312 C 453.28125 696.972656 453.28125 701.390625 450.632812 704.484375 Z M 462.558594 756.171875 C 459.464844 759.265625 455.050781 759.265625 451.957031 756.171875 C 451.957031 756.171875 442.679688 746.894531 442.679688 746.894531 C 440.03125 744.246094 440.03125 739.386719 442.679688 736.734375 C 442.679688 736.734375 462.558594 716.855469 463 716.855469 C 465.652344 714.203125 470.507812 714.203125 473.601562 716.855469 C 473.601562 716.855469 482.878906 726.132812 482.878906 726.132812 C 485.527344 728.78125 485.527344 733.640625 482.878906 736.292969 Z M 515.125 768.101562 L 494.804688 787.984375 C 491.710938 791.074219 487.296875 791.074219 484.203125 787.984375 C 484.203125 787.984375 474.925781 778.707031 474.925781 778.707031 C 472.277344 776.054688 472.277344 771.195312 474.925781 768.542969 L 495.246094 748.664062 C 498.339844 745.570312 502.753906 745.570312 505.847656 748.664062 C 505.847656 748.664062 515.125 757.941406 515.125 757.941406 C 517.773438 761.035156 517.773438 765.453125 515.125 768.101562 Z M 663.988281 700.066406 C 658.6875 705.367188 649.410156 704.484375 644.109375 699.183594 L 576.523438 632.027344 C 572.992188 628.496094 567.691406 628.496094 564.15625 632.027344 C 560.621094 635.5625 560.621094 640.863281 564.15625 644.398438 L 630.855469 711.550781 C 636.601562 717.296875 637.042969 726.574219 631.742188 731.875 C 626 737.617188 616.722656 735.851562 611.421875 730.992188 L 544.71875 663.394531 C 541.1875 659.863281 535.886719 659.863281 532.351562 663.394531 C 528.816406 666.929688 528.816406 672.230469 532.351562 675.765625 L 594.636719 738.058594 C 600.378906 743.804688 600.820312 753.082031 595.519531 758.382812 C 589.777344 764.125 580.5 762.359375 575.199219 757.5 L 507.613281 689.902344 C 504.082031 686.371094 498.78125 686.371094 495.246094 689.902344 C 491.710938 693.4375 491.710938 698.738281 495.246094 702.273438 L 555.320312 762.359375 C 561.0625 768.101562 561.0625 776.9375 555.761719 782.238281 C 550.460938 787.542969 541.1875 786.65625 535.886719 781.355469 L 531.027344 776.496094 C 533.675781 772.519531 535.003906 768.101562 535.003906 763.242188 C 535.003906 756.617188 532.351562 750.429688 527.492188 745.570312 L 518.214844 736.292969 C 513.800781 731.875 508.054688 729.664062 502.3125 729.222656 C 501.871094 723.480469 499.222656 717.738281 495.246094 713.761719 L 485.96875 704.484375 C 481.550781 700.066406 475.808594 697.855469 470.066406 697.414062 C 469.625 691.671875 466.976562 685.929688 463 681.953125 L 453.722656 672.675781 C 449.304688 668.257812 443.5625 666.046875 437.820312 665.605469 C 437.378906 659.863281 434.730469 654.117188 430.753906 650.140625 L 421.476562 640.863281 C 413.527344 632.914062 401.15625 631.585938 391.882812 636.886719 L 350.359375 595.359375 L 442.238281 501.699219 L 455.050781 514.511719 C 459.464844 518.929688 465.652344 521.578125 471.835938 521.578125 L 501.871094 521.578125 C 503.640625 521.578125 504.964844 522.019531 506.289062 523.347656 L 509.382812 526.4375 L 479.785156 556.480469 C 476.25 560.457031 474.042969 564.875 473.160156 569.734375 C 473.160156 569.734375 464.765625 618.332031 464.765625 618.332031 C 462.117188 633.796875 475.808594 648.375 491.710938 646.609375 L 504.964844 644.839844 C 511.589844 643.957031 517.773438 640.421875 521.308594 634.679688 C 527.050781 626.726562 535.886719 611.265625 536.328125 594.917969 L 556.648438 574.152344 L 662.660156 680.183594 C 668.847656 685.929688 668.847656 694.765625 663.988281 700.066406 Z M 652.503906 644.839844 L 569.457031 561.339844 L 569.898438 560.898438 C 573.433594 557.363281 573.433594 551.621094 569.898438 548.527344 C 566.363281 544.996094 560.621094 544.996094 557.53125 548.527344 L 521.75 584.757812 C 519.984375 586.523438 519.101562 589.175781 519.101562 591.382812 C 519.984375 604.195312 512.03125 617.449219 507.171875 624.078125 C 506.289062 625.402344 504.523438 626.726562 502.753906 626.726562 L 489.503906 628.496094 C 485.085938 628.9375 481.550781 624.960938 482.4375 620.984375 L 490.828125 572.386719 C 491.269531 571.0625 491.710938 569.734375 492.597656 568.851562 L 544.71875 515.835938 C 546.046875 514.511719 547.8125 513.628906 549.578125 514.070312 L 579.617188 516.71875 C 586.683594 517.160156 593.753906 514.953125 598.609375 509.652344 L 606.5625 501.699219 L 701.09375 595.800781 Z M 749.242188 565.316406 L 727.597656 586.523438 C 724.945312 589.175781 720.085938 589.175781 717.4375 586.523438 C 717.4375 586.523438 616.722656 487.5625 616.722656 487.121094 C 614.070312 484.46875 614.070312 480.050781 616.722656 477.398438 L 638.367188 456.195312 C 641.015625 453.542969 645.875 453.542969 648.527344 456.195312 C 648.527344 456.195312 748.800781 555.15625 749.242188 555.597656 C 751.890625 558.25 751.890625 562.667969 749.242188 565.316406 Z M 749.242188 565.316406"/></g><path fill="#61008D" d="M 455.492188 374.902344 C 455.492188 413.78125 487.296875 445.589844 526.167969 445.589844 C 565.039062 445.589844 596.84375 413.78125 596.84375 374.902344 C 596.84375 336.023438 565.039062 304.214844 526.167969 304.214844 C 487.296875 304.214844 455.492188 336.023438 455.492188 374.902344 Z M 579.175781 374.902344 C 579.175781 404.0625 555.320312 427.917969 526.167969 427.917969 C 497.011719 427.917969 473.160156 404.0625 473.160156 374.902344 C 473.160156 345.746094 497.011719 321.886719 526.167969 321.886719 C 555.320312 321.886719 579.175781 345.746094 579.175781 374.902344 Z M 579.175781 374.902344"/><path fill="#61008D" d="M 510.707031 367.835938 C 507.613281 364.300781 501.871094 363.859375 498.339844 367.390625 C 494.804688 370.484375 494.363281 376.226562 497.898438 379.761719 L 511.148438 393.898438 C 512.914062 395.667969 515.125 396.550781 517.773438 396.550781 C 519.542969 396.550781 521.308594 396.109375 523.074219 394.785156 L 553.996094 372.695312 C 557.972656 370.042969 558.855469 364.300781 556.203125 360.324219 C 553.554688 356.347656 547.8125 355.464844 543.835938 358.113281 L 519.101562 375.785156 Z M 510.707031 367.835938"/></svg>